<svg width="499" height="191" viewBox="0 0 499 191" fill="none" xmlns="http://www.w3.org/2000/svg">
<path d="M0.384 123L24.96 60.6H33.408L57.984 123H48.768L42.336 106.104H15.936L9.6 123H0.384ZM18.816 98.424H39.36L28.992 71.16L18.816 98.424ZM85.3043 143.352C73.5923 143.352 64.0883 136.344 62.6483 126.456L71.0963 124.152C72.0563 130.776 78.1043 135.48 85.6883 135.48C94.4243 135.48 100.664 129.432 100.664 121.08V113.4L100.76 112.536C96.9203 118.104 90.6803 121.464 83.1923 121.464C70.1363 121.464 60.7283 111.576 60.7283 97.752C60.7283 83.832 70.1363 73.848 83.3843 73.848C90.8723 73.848 97.1123 77.304 100.952 82.872L101.624 75H108.344V120.312C108.344 133.752 98.7443 143.352 85.3043 143.352ZM84.7283 114.168C94.0403 114.168 100.664 107.352 100.664 97.752C100.664 88.152 94.0403 81.336 84.7283 81.336C75.4163 81.336 68.7923 88.152 68.7923 97.752C68.7923 107.352 75.4163 114.168 84.7283 114.168ZM120.613 123V75H127.141L127.909 82.68C130.309 75.672 137.701 72.312 145.957 74.616L145.573 83.64C137.893 79.8 128.293 82.968 128.293 93.816V123H120.613ZM153.238 123V60.6H161.302V123H153.238ZM190.094 123V68.28H167.63V60.6H220.622V68.28H198.158V123H190.094ZM226.925 123V75H233.453L234.221 82.68C236.621 75.672 244.013 72.312 252.269 74.616L251.885 83.64C244.205 79.8 234.605 82.968 234.605 93.816V123H226.925ZM279.536 124.152C265.616 124.152 255.728 113.688 255.728 99C255.728 84.312 265.328 73.848 278.768 73.848C293.456 73.848 302.48 86.04 301.328 102.168H264.272C265.616 110.616 271.568 116.472 279.728 116.472C286.256 116.472 291.44 112.632 292.592 107.256L300.848 109.944C298.544 118.392 289.904 124.152 279.536 124.152ZM264.368 94.68H293.168C292.016 86.616 286.256 81.336 278.96 81.336C271.376 81.336 265.712 86.808 264.368 94.68ZM310.644 123V75H317.172L318.036 83.256C320.628 77.496 326.964 73.848 334.068 73.848C344.916 73.848 352.692 82.296 352.692 93.816V123H345.012V94.584C345.012 86.904 339.828 81.528 332.532 81.528C324.468 81.528 318.324 87.96 318.324 96.888V123H310.644ZM383.978 123.384C375.914 125.688 365.354 123.384 365.354 112.632V82.488H357.674V75H360.554C363.722 75 365.738 72.696 365.738 69.048V62.712H373.034V75H383.786V82.488H373.034V110.712C373.034 116.088 378.602 117.624 383.594 115.704L383.978 123.384ZM412.76 124.152C398.744 124.152 388.76 113.688 388.76 99C388.76 84.312 398.744 73.848 412.76 73.848C426.776 73.848 436.76 84.312 436.76 99C436.76 113.688 426.776 124.152 412.76 124.152ZM412.76 116.472C422.072 116.472 428.696 109.176 428.696 99C428.696 88.728 422.072 81.336 412.76 81.336C403.448 81.336 396.824 88.728 396.824 99C396.824 109.176 403.448 116.472 412.76 116.472Z" fill="#2E6A1E"/>
<rect x="0.707109" width="5.43564" height="40" rx="2.71782" transform="matrix(0.707109 -0.707104 0.707109 0.707104 127.877 37.6658)" fill="#2E6A1E" stroke="#2E6A1E"/>
<path d="M191.684 22.9877L166.335 48.3361C165.274 49.3974 163.553 49.3975 162.492 48.3361C161.43 47.2747 161.43 45.5539 162.492 44.4925L187.84 19.1441C188.901 18.0828 190.622 18.0828 191.684 19.1441C192.745 20.2055 192.745 21.9263 191.684 22.9877Z" fill="#2E6A1E" stroke="#2E6A1E"/>
<path d="M155.88 58.4303C156.098 56.8713 156.453 55.3346 156.94 53.8376L157.726 51.9221L158.508 50.358L159.443 48.833L160.479 47.2532L161.545 45.8416C162.011 45.2242 162.769 44.9 163.537 44.9896C164.284 45.0767 164.933 45.5423 165.254 46.2215L165.487 46.7119C165.983 47.7585 165.866 48.9926 165.182 49.9276L164.567 50.7701L164.559 50.7804L164.552 50.7911L163.602 52.2411L163.591 52.2584L163.581 52.2765L162.631 54.0265L162.618 54.0511L162.607 54.0769L161.957 55.6769L161.951 55.6918L161.946 55.707L161.446 57.207L161.441 57.2209L161.438 57.2351L161.088 58.5351L161.085 58.5438L161.083 58.5526L160.933 59.2026L160.929 59.2216L160.926 59.2409L160.835 59.8505C160.795 60.1145 160.758 60.3804 160.727 60.6482C160.711 60.7835 160.692 60.9432 160.674 61.1098C160.653 61.2983 160.632 61.5335 160.615 61.7443C160.583 62.1488 160.572 62.552 160.575 62.9515L160.678 75.3055C160.691 76.8533 159.44 78.115 157.892 78.115C156.354 78.115 155.106 76.8676 155.106 75.3288V63.9499L155.88 58.4303Z" fill="#2E6A1E" stroke="#2E6A1E"/>
<path d="M151.12 38.0152C151.42 41.7151 149.783 45.2151 148.07 45.2151C144.22 39.7152 146.32 32.9152 136.22 27.5652C123.57 22.2152 113.22 24.1152 116.02 18.0652C147.27 16.9152 151.12 34.7567 151.12 38.0152Z" fill="#2E6A1E"/>
<path d="M113.82 33.7152C112.92 18.4652 117.12 15.9152 116.02 19.6628C122.32 20.4652 115.67 33.4152 125.77 45.7845C134.32 54.2151 139.72 45.5651 141.62 55.2651C119.97 61.3151 114.045 37.5204 113.82 33.7152Z" fill="#2E6A1E"/>
<path d="M145.17 52.2651C147.02 53.9651 139.92 56.0151 139.17 55.5151C136.188 55.5151 129.32 50.9858 129.32 49.8537C126.07 48.4537 137.02 51.4151 139.92 48.8537C142.903 48.8537 145.17 51.1329 145.17 52.2651Z" fill="#2E6A1E"/>
<path d="M151.27 38.6651C151.72 47.1151 147.92 53.6151 143.72 53.0151C136.82 50.3151 143.67 49.6651 144.82 42.6651C145.17 42.2151 145.07 37.7152 144.57 36.4152C147.62 31.9652 150.956 32.7652 151.27 38.6651Z" fill="#2E6A1E"/>
<path d="M117.702 24.8652C117.702 28.5655 115.79 37.8652 115.32 37.8652C114.42 39.9651 113.02 29.5155 113.02 25.8152C113.02 22.1149 112.62 19.0652 115.37 18.1652C118.42 17.5152 117.702 21.1649 117.702 24.8652Z" fill="#2E6A1E"/>
<path d="M133.37 25.4652C131.97 25.9652 125.87 24.2652 122.17 24.3152C117.67 24.376 116.12 23.8727 116.12 23.2652C116.12 22.6577 120.072 22.1152 122.17 22.1152C124.269 22.1152 133.37 24.8577 133.37 25.4652Z" fill="#2E6A1E"/>
<path d="M119.37 26.7152C119.47 28.7652 119.536 30.5152 119.37 30.5152C119.205 30.5152 118.77 28.681 118.77 26.6652C118.77 24.6494 119.055 22.7152 119.22 22.7152C119.386 22.7152 119.37 24.6994 119.37 26.7152Z" fill="#2E6A1E"/>
<path d="M208.471 3.56527C211.571 10.7153 199.771 7.06528 189.121 9.22744C165.37 13.4652 167.77 27.8152 160.27 25.0152C157.62 21.5152 167.57 6.94527 185.721 3.31527C198.376 0.784216 207.871 1.61529 208.471 3.56527Z" fill="#2E6A1E"/>
<path d="M164.47 28.4152C162.22 40.5151 173.47 47.4151 163.22 43.6151C164.32 51.8151 157.47 41.3151 157.92 30.8152C157.27 24.0652 165.17 11.6153 167.82 13.3152C174.42 17.5492 166.47 18.5652 164.47 28.4152Z" fill="#2E6A1E"/>
<path d="M207.221 26.1152C200.671 53.0151 181.521 55.5651 169.92 51.4651C152.97 33.6652 184.971 62.3651 198.621 32.3652C205.721 15.0652 200.069 6.36295 205.121 3.46529C211.571 -0.234701 208.621 20.7153 207.221 26.1152Z" fill="#2E6A1E"/>
<path d="M209.014 5.31428C209.014 7.1368 209.543 12.6642 207.914 12.6642C206.284 12.6642 199.371 4.88974 199.371 3.06721C199.371 1.24468 204.491 1.96721 206.121 1.96721C207.75 1.96721 209.014 3.49175 209.014 5.31428Z" fill="#2E6A1E"/>
<path d="M177.62 51.6651C178.32 54.3151 170.67 51.8651 168.17 50.7151C164.42 49.1151 164.02 48.5316 164.02 47.5651C164.02 46.5986 167.742 44.8651 170.42 44.8651C185.721 50.8651 191.271 39.5151 177.62 51.6651Z" fill="#2E6A1E"/>
<path d="M16.304 183V159.6H26.168C30.38 159.6 33.44 162.696 33.44 166.944C33.44 171.228 30.308 174.36 26.024 174.36H19.328V183H16.304ZM19.328 171.48H26.024C28.472 171.48 30.272 169.608 30.272 166.98C30.272 164.352 28.472 162.48 26.024 162.48H19.328V171.48ZM36.4485 183V165H38.8965L39.1845 167.88C40.0845 165.252 42.8565 163.992 45.9525 164.856L45.8085 168.24C42.9285 166.8 39.3285 167.988 39.3285 172.056V183H36.4485ZM56.1777 183.432C50.9577 183.432 47.2497 179.508 47.2497 174C47.2497 168.492 50.8497 164.568 55.8897 164.568C61.3977 164.568 64.7817 169.14 64.3497 175.188H50.4537C50.9577 178.356 53.1897 180.552 56.2497 180.552C58.6977 180.552 60.6417 179.112 61.0737 177.096L64.1697 178.104C63.3057 181.272 60.0657 183.432 56.1777 183.432ZM50.4897 172.38H61.2897C60.8577 169.356 58.6977 167.376 55.9617 167.376C53.1177 167.376 50.9937 169.428 50.4897 172.38ZM67.8431 183V165H70.2911L70.6151 168.096C71.5871 165.936 73.9631 164.568 76.6271 164.568C80.6951 164.568 83.6111 167.736 83.6111 172.056V183H80.7311V172.344C80.7311 169.464 78.7871 167.448 76.0511 167.448C73.0271 167.448 70.7231 169.86 70.7231 173.208V183H67.8431ZM95.6247 183.432C90.3687 183.432 86.6247 179.508 86.6247 174C86.6247 168.492 90.3687 164.568 95.6247 164.568C100.881 164.568 104.625 168.492 104.625 174C104.625 179.508 100.881 183.432 95.6247 183.432ZM95.6247 180.552C99.1167 180.552 101.601 177.816 101.601 174C101.601 170.148 99.1167 167.376 95.6247 167.376C92.1327 167.376 89.6487 170.148 89.6487 174C89.6487 177.816 92.1327 180.552 95.6247 180.552ZM115.523 183.144C112.499 184.008 108.539 183.144 108.539 179.112V167.808H105.659V165H106.739C107.927 165 108.683 164.136 108.683 162.768V160.392H111.419V165H115.451V167.808H111.419V178.392C111.419 180.408 113.507 180.984 115.379 180.264L115.523 183.144ZM123.501 183.432C119.937 183.432 117.597 181.38 117.597 178.248C117.597 175.764 119.577 173.748 122.637 173.208L128.181 172.2C128.793 172.092 129.261 171.624 129.261 171.048C129.261 168.78 127.713 167.16 125.517 167.16C123.213 167.16 121.485 168.816 121.341 171.336L118.173 170.976C118.533 167.232 121.521 164.568 125.373 164.568C129.333 164.568 132.141 167.34 132.141 171.192V179.4L132.213 183H129.909L129.405 180.264C128.289 182.208 126.129 183.432 123.501 183.432ZM120.765 178.104C120.765 179.616 122.061 180.624 124.077 180.624C127.101 180.624 129.261 178.536 129.261 175.656V174.396C128.937 174.468 128.541 174.576 128.109 174.648L123.357 175.512C121.773 175.8 120.765 176.808 120.765 178.104ZM142.798 175.116V172.308H155.326V175.116H142.798ZM176.357 183.432C170.021 183.432 165.413 178.32 165.413 171.3C165.413 164.316 170.093 159.168 176.573 159.168C181.721 159.168 186.041 162.408 186.869 166.872L183.413 168.024C183.017 164.568 180.137 162.12 176.501 162.12C171.929 162.12 168.581 165.972 168.581 171.228C168.581 176.556 171.929 180.408 176.645 180.408C180.857 180.408 184.061 177.42 184.205 173.352V173.028H173.693V170.22H186.869L187.589 183H185.573L184.925 177.132C184.097 180.876 180.749 183.432 176.357 183.432ZM198.04 183.432C193.936 183.432 191.056 180.552 191.056 176.376V165H193.936V175.944C193.936 178.572 195.916 180.48 198.688 180.48C201.64 180.48 203.728 178.356 203.728 175.368V165H206.608V179.4L206.68 183H204.16L203.728 180.12C202.936 182.136 200.776 183.432 198.04 183.432ZM217.546 183.432C213.226 183.432 210.058 180.984 209.77 177.672L212.938 176.808C213.082 178.968 215.098 180.696 217.69 180.696C219.706 180.696 221.29 179.616 221.29 178.104C221.29 174.072 210.634 175.656 210.634 169.608C210.634 166.656 213.226 164.568 216.97 164.568C220.714 164.568 223.486 166.62 223.882 169.464L220.858 170.256C220.786 168.492 219.202 167.232 217.042 167.232C215.098 167.232 213.73 168.24 213.73 169.608C213.73 173.496 224.458 171.912 224.458 178.104C224.458 181.2 221.578 183.432 217.546 183.432ZM235.476 183.144C232.452 184.008 228.492 183.144 228.492 179.112V167.808H225.612V165H226.692C227.88 165 228.636 164.136 228.636 162.768V160.392H231.372V165H235.404V167.808H231.372V178.392C231.372 180.408 233.46 180.984 235.332 180.264L235.476 183.144ZM243.454 183.432C239.89 183.432 237.55 181.38 237.55 178.248C237.55 175.764 239.53 173.748 242.59 173.208L248.134 172.2C248.746 172.092 249.214 171.624 249.214 171.048C249.214 168.78 247.666 167.16 245.47 167.16C243.166 167.16 241.438 168.816 241.294 171.336L238.126 170.976C238.486 167.232 241.474 164.568 245.326 164.568C249.286 164.568 252.094 167.34 252.094 171.192V179.4L252.166 183H249.862L249.358 180.264C248.242 182.208 246.082 183.432 243.454 183.432ZM240.718 178.104C240.718 179.616 242.014 180.624 244.03 180.624C247.054 180.624 249.214 178.536 249.214 175.656V174.396C248.89 174.468 248.494 174.576 248.062 174.648L243.31 175.512C241.726 175.8 240.718 176.808 240.718 178.104ZM262.751 175.116V172.308H275.279V175.116H262.751ZM294.87 183.432C289.578 183.432 285.654 180.264 285.366 175.656L288.678 174.792C288.822 178.104 291.378 180.48 294.942 180.48C297.822 180.48 300.054 178.896 300.054 176.664C300.054 171.084 286.374 172.776 286.374 165.288C286.374 161.544 289.83 159.168 294.222 159.168C298.686 159.168 302.07 161.688 302.502 165.432L299.19 166.368C298.902 163.92 296.886 162.048 294.006 162.048C291.702 162.048 289.686 163.272 289.686 165.144C289.686 170.04 303.366 168.6 303.366 176.664C303.366 180.66 299.946 183.432 294.87 183.432ZM314.824 183.432C309.568 183.432 305.824 179.508 305.824 174C305.824 168.492 309.568 164.568 314.824 164.568C320.08 164.568 323.824 168.492 323.824 174C323.824 179.508 320.08 183.432 314.824 183.432ZM314.824 180.552C318.316 180.552 320.8 177.816 320.8 174C320.8 170.148 318.316 167.376 314.824 167.376C311.332 167.376 308.848 170.148 308.848 174C308.848 177.816 311.332 180.552 314.824 180.552ZM333.632 183.432C329.312 183.432 326.144 180.984 325.856 177.672L329.024 176.808C329.168 178.968 331.184 180.696 333.776 180.696C335.792 180.696 337.376 179.616 337.376 178.104C337.376 174.072 326.72 175.656 326.72 169.608C326.72 166.656 329.312 164.568 333.056 164.568C336.8 164.568 339.572 166.62 339.968 169.464L336.944 170.256C336.872 168.492 335.288 167.232 333.128 167.232C331.184 167.232 329.816 168.24 329.816 169.608C329.816 173.496 340.544 171.912 340.544 178.104C340.544 181.2 337.664 183.432 333.632 183.432ZM351.562 183.144C348.538 184.008 344.578 183.144 344.578 179.112V167.808H341.698V165H342.778C343.966 165 344.722 164.136 344.722 162.768V160.392H347.458V165H351.49V167.808H347.458V178.392C347.458 180.408 349.546 180.984 351.418 180.264L351.562 183.144ZM354.788 165H357.668V183H354.788V165ZM356.228 162.696C354.932 162.696 353.996 161.724 353.996 160.392C353.996 159.06 354.932 158.088 356.228 158.088C357.524 158.088 358.46 159.06 358.46 160.392C358.46 161.724 357.524 162.696 356.228 162.696ZM370.053 183.432C364.833 183.432 361.125 179.508 361.125 174C361.125 168.492 364.725 164.568 369.765 164.568C375.273 164.568 378.657 169.14 378.225 175.188H364.329C364.833 178.356 367.065 180.552 370.125 180.552C372.573 180.552 374.517 179.112 374.949 177.096L378.045 178.104C377.181 181.272 373.941 183.432 370.053 183.432ZM364.365 172.38H375.165C374.733 169.356 372.573 167.376 369.837 167.376C366.993 167.376 364.869 169.428 364.365 172.38ZM381.718 183V165H384.166L384.49 168.096C385.462 165.936 387.838 164.568 390.502 164.568C394.57 164.568 397.486 167.736 397.486 172.056V183H394.606V172.344C394.606 169.464 392.662 167.448 389.926 167.448C386.902 167.448 384.598 169.86 384.598 173.208V183H381.718ZM401.652 165H404.532V183H401.652V165ZM403.092 162.696C401.796 162.696 400.86 161.724 400.86 160.392C400.86 159.06 401.796 158.088 403.092 158.088C404.388 158.088 405.324 159.06 405.324 160.392C405.324 161.724 404.388 162.696 403.092 162.696Z" fill="#2E6A1E"/>
</svg>
