<svg width="1206" height="534" viewBox="0 0 1206 534" fill="none" xmlns="http://www.w3.org/2000/svg">
<rect y="223" width="1206" height="311" rx="40" fill="#2E6A1E"/>
<ellipse cx="479.944" cy="252.5" rx="254" ry="252.5" fill="#2E6A1E"/>
<rect x="0.705396" width="21.5764" height="142.829" rx="10.7882" transform="matrix(0.705396 -0.708814 0.705396 0.708814 350.392 219.661)" fill="white" stroke="white"/>
<path d="M575.085 154.898C579.288 159.121 579.288 165.968 575.085 170.192L486.377 259.33C482.174 263.553 475.36 263.553 471.157 259.33C466.955 255.107 466.955 248.26 471.157 244.036L559.866 154.898C564.069 150.675 570.883 150.675 575.085 154.898Z" fill="white" stroke="white"/>
<path d="M467.738 248.901C469.631 246.381 472.721 245.057 475.851 245.424C478.887 245.78 481.525 247.677 482.829 250.443L483.662 252.211C485.589 256.299 485.135 261.112 482.477 264.767L480.312 267.744L480.305 267.753L480.298 267.764L476.974 272.864L476.962 272.88L476.952 272.899L473.628 279.053L473.614 279.078L473.604 279.103L471.329 284.729L471.323 284.745L471.318 284.759L469.568 290.034L469.564 290.048L469.561 290.062L468.335 294.633L468.331 294.651L467.806 296.937L467.802 296.956L467.799 296.975L467.274 300.492L467.769 300.565L467.273 300.492L467.272 300.503V300.504C467.272 300.505 467.272 300.506 467.271 300.507C467.271 300.51 467.271 300.515 467.271 300.52C467.269 300.531 467.267 300.547 467.265 300.568C467.26 300.61 467.252 300.671 467.242 300.75C467.223 300.906 467.196 301.132 467.163 301.407C467.097 301.957 467.01 302.706 466.922 303.5C466.833 304.3 466.745 305.361 466.68 306.219C466.647 306.649 466.619 307.03 466.6 307.302C466.59 307.439 466.582 307.548 466.577 307.624C466.575 307.661 466.573 307.691 466.571 307.71C466.571 307.72 466.571 307.728 466.57 307.733C466.57 307.735 466.569 307.737 466.569 307.739V307.741L466.568 307.759V307.778L466.947 353.326C466.998 359.436 462.058 364.417 455.947 364.417C449.872 364.417 444.946 359.492 444.946 353.417V313.258L448.451 288.136C448.707 286.303 449.123 284.496 449.694 282.735L451.439 277.354L454.227 270.527L457.005 264.943L460.312 259.519L460.313 259.52L463.979 253.906L467.738 248.901Z" fill="white" stroke="white"/>
<path d="M308.166 153.718C307.491 155.61 307.213 157.293 307.324 158.802C307.473 160.825 308.318 162.493 309.751 163.9C311.172 165.295 313.165 166.426 315.615 167.416C316.642 167.83 317.755 168.219 318.947 168.596C320.096 173.728 320.367 180.446 320.989 188.326C322.348 205.531 325.377 227.915 343.147 249.784L343.164 249.804L343.184 249.824C350.716 257.287 357.577 260.99 363.744 262.866C369.901 264.738 375.345 264.781 379.977 264.963C384.642 265.147 388.405 265.475 391.437 267.775C394.407 270.029 396.769 274.258 398.42 282.449C379.776 287.597 364.533 286.335 352.135 281.359C339.632 276.34 329.981 267.528 322.644 257.615C315.306 247.701 310.293 236.702 307.066 227.341C304.039 218.559 302.593 211.249 302.266 207.664L302.215 206.998C300.642 180.22 303.53 164.65 306.294 157.446C306.955 155.722 307.604 154.498 308.166 153.718ZM310.312 152.463C364.343 150.634 394.668 165.211 411.493 181.615C428.425 198.123 431.749 216.538 431.749 222.147V222.167L431.75 222.188C432.268 228.614 431.11 234.861 429.094 239.486C428.085 241.799 426.872 243.686 425.565 244.986C424.342 246.203 423.072 246.874 421.834 246.957C418.596 242.244 416.58 237.253 414.855 232.096C413.111 226.881 411.645 221.439 409.507 216.051C405.202 205.205 398.127 194.426 380.34 184.958L380.321 184.949L380.301 184.94L378.227 184.075C356.862 175.322 337.5 172.358 324.605 169.134C322.879 168.703 321.272 168.266 319.791 167.812C319.717 167.504 319.64 167.201 319.559 166.905C318.811 164.188 317.744 161.92 316.121 160.237C314.599 158.658 312.62 157.627 310.047 157.199C310.425 155.777 310.586 154.609 310.56 153.736C310.545 153.247 310.472 152.816 310.32 152.478C310.318 152.473 310.315 152.468 310.312 152.463ZM309.477 153.1C309.519 153.267 309.551 153.486 309.56 153.766C309.585 154.605 309.408 155.85 308.935 157.471L308.771 158.033L309.352 158.107C312.01 158.447 313.948 159.424 315.401 160.931C316.864 162.449 317.871 164.541 318.595 167.17C318.621 167.265 318.645 167.361 318.67 167.457C317.718 167.144 316.823 166.825 315.99 166.489C313.597 165.522 311.739 164.45 310.451 163.186C309.175 161.933 308.451 160.487 308.321 158.729C308.206 157.162 308.562 155.313 309.477 153.1Z" fill="white" stroke="white"/>
<path d="M356.458 263.449L356.157 263.318C355.797 263.162 355.491 263.024 355.236 262.901C355.319 262.906 355.405 262.911 355.496 262.917C356.557 262.988 358.091 263.161 359.965 263.373C361.833 263.585 364.027 263.833 366.39 264.049C371.111 264.481 376.53 264.787 381.414 264.417C386.182 264.055 390.552 263.041 393.235 260.763C398.251 260.809 402.672 262.746 405.851 265.164C407.459 266.387 408.739 267.726 409.612 268.988C410.494 270.263 410.926 271.41 410.926 272.258V272.477L411.087 272.625C411.815 273.297 412.041 273.922 411.992 274.495C411.941 275.096 411.58 275.757 410.889 276.462C409.504 277.874 407.003 279.25 404.151 280.409C401.315 281.562 398.196 282.476 395.629 282.992C394.345 283.25 393.211 283.406 392.328 283.445C391.886 283.465 391.519 283.454 391.233 283.417C390.936 283.378 390.776 283.316 390.707 283.271L390.581 283.186H390.429C387.922 283.186 384.539 282.223 380.833 280.674C377.141 279.131 373.181 277.029 369.541 274.799C365.9 272.569 362.592 270.219 360.2 268.187C359.003 267.17 358.048 266.242 357.396 265.457C357.071 265.064 356.829 264.717 356.672 264.422C356.511 264.12 356.458 263.909 356.458 263.777V263.449Z" fill="white" stroke="white"/>
<path d="M417.6 208.663C420.131 207.101 422.476 206.691 424.494 207.307C426.514 207.924 428.319 209.604 429.696 212.46C430.987 215.139 431.884 218.818 432.215 223.508L432.274 224.459C433.057 239.242 430.138 252.29 425.225 261.36C420.311 270.431 413.497 275.382 406.48 274.407C403.502 273.233 401.283 272.18 399.682 271.19C398.066 270.19 397.119 269.28 396.636 268.419C396.167 267.584 396.113 266.755 396.377 265.835C396.649 264.891 397.256 263.858 398.118 262.659C401.536 257.907 408.617 251.076 410.676 238.684C410.765 238.536 410.835 238.365 410.889 238.192C410.962 237.96 411.025 237.683 411.08 237.374C411.188 236.756 411.269 235.969 411.326 235.072C411.439 233.274 411.455 230.988 411.378 228.615C411.301 226.241 411.131 223.769 410.87 221.601C410.627 219.591 410.298 217.806 409.881 216.597C412.48 212.831 415.112 210.199 417.6 208.663Z" fill="white" stroke="white"/>
<path d="M307.271 152.828C309.839 152.283 311.493 152.669 312.592 153.612C313.719 154.579 314.381 156.228 314.729 158.466C315.074 160.692 315.094 163.406 315.025 166.402C314.957 169.381 314.8 172.646 314.8 175.905C314.8 182.359 313.135 193.747 311.257 203.548C310.319 208.442 309.331 212.925 308.477 216.179C308.049 217.809 307.657 219.119 307.325 220.015C307.158 220.467 307.014 220.794 306.896 221.001C306.866 221.052 306.841 221.092 306.821 221.12H306.635L306.505 221.424C306.317 221.864 306.162 222.034 306.086 222.083C306.081 222.086 306.077 222.086 306.074 222.088C306.063 222.083 306.043 222.074 306.013 222.052C305.887 221.958 305.709 221.739 305.495 221.334C305.288 220.941 305.072 220.421 304.851 219.781C303.963 217.215 303.062 212.943 302.253 208.001C300.637 198.125 299.416 185.715 299.416 179.246C299.416 172.689 299.069 166.836 299.911 162.192C300.33 159.885 301.036 157.922 302.197 156.35C303.349 154.793 304.969 153.59 307.271 152.828Z" fill="white" stroke="white"/>
<path d="M330.936 166.735C332.706 166.735 336.021 167.323 340.046 168.262C344.052 169.197 348.712 170.466 353.144 171.802C357.578 173.139 361.775 174.542 364.859 175.74C366.403 176.34 367.655 176.883 368.514 177.338C368.785 177.481 369.009 177.613 369.187 177.729C368.742 177.798 368.202 177.837 367.569 177.84C366.518 177.845 365.252 177.757 363.814 177.603C360.939 177.295 357.422 176.72 353.635 176.093C346.32 174.883 337.997 173.474 331.548 173.467L330.929 173.471C323.067 173.578 317.817 173.188 314.546 172.516C312.906 172.18 311.802 171.78 311.12 171.361C310.437 170.942 310.264 170.566 310.264 170.279C310.264 170.289 310.272 170.156 310.646 169.911C310.987 169.688 311.51 169.454 312.201 169.219C313.575 168.753 315.503 168.319 317.68 167.949C322.032 167.209 327.297 166.735 330.936 166.735Z" fill="white" stroke="white"/>
<path d="M320.49 170.193C320.537 170.875 320.571 171.735 320.593 172.731C320.651 175.354 320.638 178.863 320.638 182.411V182.435C320.813 186.04 320.958 189.372 320.986 191.801C320.998 192.771 320.988 193.587 320.958 194.216C320.766 193.547 320.557 192.648 320.362 191.573C319.915 189.101 319.538 185.747 319.538 182.236C319.538 178.712 319.786 175.26 320.104 172.694C320.227 171.709 320.359 170.861 320.49 170.193Z" fill="white" stroke="white"/>
<path d="M553.431 100.615C575.543 96.171 594.883 94.6816 608.943 95.1553C615.976 95.3923 621.668 96.1199 625.72 97.2055C627.747 97.7486 629.341 98.3758 630.483 99.0616C631.56 99.7094 632.179 100.376 632.425 101.022L632.469 101.151L632.478 101.177L632.488 101.203C633.828 104.308 634.337 106.772 634.182 108.728C634.029 110.662 633.227 112.129 631.864 113.27C630.485 114.425 628.509 115.261 626 115.862C623.495 116.462 620.497 116.818 617.102 117.038C610.298 117.48 602.023 117.372 593.047 117.632C584.653 117.875 575.689 118.439 566.89 120.081L565.144 120.423C523.463 127.896 504.685 144.302 493.048 157.625C490.149 160.945 487.689 164.079 485.448 166.806C483.198 169.543 481.17 171.869 479.106 173.627C477.047 175.38 474.974 176.549 472.641 176.995C470.342 177.433 467.741 177.178 464.586 176.015C463.584 174.612 463.148 172.643 463.327 170.179C463.51 167.65 464.337 164.646 465.799 161.313C468.722 154.648 474.15 146.739 481.863 138.799C497.044 123.169 521.017 107.474 551.952 100.921L553.431 100.615Z" fill="white" stroke="white"/>
<path d="M486.635 135.707C488.093 135.11 489.29 135.086 490.234 135.6L490.419 135.71C496.182 139.424 498.605 142.339 499.095 145.085C499.585 147.829 498.183 150.595 495.705 154.147C490.867 161.081 482.276 170.543 478.646 187.478L478.477 188.29L478.475 188.298C474.507 209.741 482.45 226.576 486.823 236.287C487.921 238.726 488.778 240.679 489.182 242.151C489.384 242.887 489.46 243.458 489.418 243.885C489.379 244.294 489.236 244.54 489.01 244.703C488.762 244.881 488.339 245.011 487.639 245.015C486.945 245.019 486.034 244.9 484.866 244.637C482.529 244.113 479.248 243.04 474.767 241.371L473.987 241.081L474.097 241.906C474.576 245.495 474.615 248.013 474.343 249.616C474.207 250.419 474.001 250.948 473.771 251.264C473.556 251.561 473.331 251.661 473.092 251.664C472.82 251.666 472.446 251.541 471.966 251.205C471.493 250.873 470.961 250.365 470.382 249.682C469.226 248.317 467.935 246.306 466.616 243.763C461.418 233.747 455.935 215.785 456.512 197.711L456.544 196.85L456.546 196.815L456.542 196.781C455.983 190.945 457.263 183.833 459.669 176.515C462.074 169.205 465.59 161.726 469.467 155.171C473.347 148.611 477.573 143.001 481.387 139.41C483.297 137.612 485.077 136.345 486.635 135.707Z" fill="white" stroke="white"/>
<path d="M621.473 101.086C624.219 99.5025 626.354 99.2991 628.022 100.019C629.712 100.748 631.073 102.486 632.118 105.123C634.208 110.395 634.885 118.889 634.699 128.467C634.34 146.994 630.763 169.276 628.321 179.25L628.088 180.176L628.086 180.183C616.652 227.369 594.245 253.12 569.711 265.304C545.207 277.474 518.502 276.15 498.319 269.012C490.949 261.233 486.259 256.012 483.769 252.618C482.509 250.901 481.859 249.713 481.675 248.928C481.585 248.545 481.621 248.322 481.687 248.191C481.747 248.07 481.873 247.946 482.152 247.851C482.753 247.647 483.808 247.656 485.359 247.874C486.884 248.088 488.794 248.488 491.047 248.99C495.543 249.991 501.365 251.386 508.022 252.444C521.338 254.56 538.063 255.341 554.471 248.943C570.896 242.538 586.943 228.962 598.932 202.485L598.936 202.477L598.939 202.468C611.395 171.971 612.666 149.044 613.038 132.485C613.224 124.189 613.187 117.569 614.196 112.371C615.167 107.373 617.091 103.77 621.08 101.319L621.473 101.086Z" fill="white" stroke="white"/>
<path d="M610.79 95.4148C613.363 95.3326 616.12 95.4487 618.599 95.5867C620.755 95.7066 622.721 95.8451 624.146 95.8777L624.723 95.8845C630.075 95.8846 634.347 100.942 634.347 107.154C634.347 110.429 634.811 116.798 634.561 122.459C634.437 125.279 634.136 127.853 633.53 129.708C632.909 131.607 632.063 132.501 630.998 132.501C630.733 132.501 630.373 132.419 629.913 132.229C629.457 132.042 628.931 131.761 628.342 131.39C627.165 130.649 625.774 129.574 624.249 128.251C621.2 125.606 617.657 122.005 614.286 118.198C610.915 114.391 607.726 110.39 605.384 106.948C604.213 105.226 603.259 103.654 602.6 102.321C601.932 100.969 601.601 99.9302 601.601 99.2527C601.601 97.9597 602.476 97.0459 604.166 96.4128C605.855 95.7796 608.206 95.4974 610.79 95.4148Z" fill="white" stroke="white"/>
<path d="M499.699 246.735C523.014 255.899 539.906 253.557 547.66 251.451C543.397 254.25 535.87 259.741 524.653 269.774L524.424 269.979L524.502 270.274C524.782 271.337 524.624 272.045 524.236 272.534C523.829 273.047 523.088 273.425 521.989 273.635C519.789 274.055 516.48 273.744 512.748 272.998C505.31 271.512 496.467 268.36 492.125 266.353H492.125L492.112 266.348L490.916 265.83C485.106 263.296 481.858 261.537 480.05 260.047C479.097 259.261 478.569 258.569 478.273 257.9C477.977 257.232 477.892 256.545 477.892 255.729C477.892 255.461 478.025 255.1 478.368 254.649C478.706 254.205 479.214 253.718 479.877 253.209C481.203 252.192 483.086 251.131 485.277 250.166C489.635 248.248 495.12 246.755 499.699 246.735Z" fill="white" stroke="white"/>
<path d="M65.18 456C61.0733 456 57.92 454.24 55.72 450.72C53.52 447.2 53.3 443.46 55.06 439.5L116.88 291.88C119.08 286.747 122.673 284.18 127.66 284.18C132.94 284.18 136.533 286.747 138.44 291.88L200.48 439.94C202.093 444.047 201.8 447.787 199.6 451.16C197.547 454.387 194.393 456 190.14 456C187.94 456 185.813 455.413 183.76 454.24C181.853 452.92 180.46 451.16 179.58 448.96L125.02 313.44H131.18L75.74 448.96C74.7133 451.307 73.1733 453.067 71.12 454.24C69.2133 455.413 67.2333 456 65.18 456ZM76.84 418.16L85.64 399.24H171.88L180.68 418.16H76.84ZM259.351 456.88C248.351 456.88 238.597 454.313 230.091 449.18C221.731 443.9 215.131 436.713 210.291 427.62C205.451 418.38 203.031 407.82 203.031 395.94C203.031 383.913 205.597 373.353 210.731 364.26C216.011 355.02 223.197 347.833 232.291 342.7C241.384 337.42 251.871 334.78 263.751 334.78C275.484 334.78 285.897 337.42 294.991 342.7C304.084 347.833 311.197 355.02 316.331 364.26C321.611 373.353 324.251 383.913 324.251 395.94H311.271C311.271 407.82 308.997 418.38 304.451 427.62C300.051 436.713 293.964 443.9 286.191 449.18C278.417 454.313 269.471 456.88 259.351 456.88ZM263.311 505.94C252.897 505.94 243.144 503.887 234.051 499.78C224.957 495.673 217.257 489.66 210.951 481.74C209.044 479.247 208.311 476.68 208.751 474.04C209.337 471.4 210.804 469.273 213.151 467.66C215.791 465.9 218.504 465.313 221.291 465.9C224.224 466.487 226.571 467.953 228.331 470.3C232.291 475.287 237.277 479.173 243.291 481.96C249.304 484.747 256.124 486.14 263.751 486.14C270.791 486.14 277.244 484.453 283.111 481.08C289.124 477.707 293.891 472.72 297.411 466.12C300.931 459.52 302.691 451.453 302.691 441.92V410.68L309.951 391.32L324.251 395.94V443.46C324.251 455.047 321.684 465.533 316.551 474.92C311.417 484.453 304.231 492.007 294.991 497.58C285.897 503.153 275.337 505.94 263.311 505.94ZM263.751 437.08C271.377 437.08 278.124 435.32 283.991 431.8C289.857 428.28 294.404 423.44 297.631 417.28C301.004 411.12 302.691 404.007 302.691 395.94C302.691 387.873 301.004 380.76 297.631 374.6C294.404 368.293 289.857 363.38 283.991 359.86C278.124 356.34 271.377 354.58 263.751 354.58C256.124 354.58 249.377 356.34 243.511 359.86C237.644 363.38 233.024 368.293 229.651 374.6C226.277 380.76 224.591 387.873 224.591 395.94C224.591 404.007 226.277 411.12 229.651 417.28C233.024 423.44 237.644 428.28 243.511 431.8C249.377 435.32 256.124 437.08 263.751 437.08ZM357.428 380.76C357.428 371.96 359.554 364.113 363.808 357.22C368.208 350.18 374.074 344.607 381.408 340.5C388.741 336.393 396.808 334.34 405.608 334.34C414.408 334.34 420.934 335.807 425.188 338.74C429.588 341.527 431.274 344.9 430.248 348.86C429.808 350.913 428.928 352.527 427.608 353.7C426.434 354.727 425.041 355.387 423.428 355.68C421.814 355.973 420.054 355.9 418.148 355.46C408.761 353.553 400.328 353.407 392.848 355.02C385.368 356.633 379.428 359.64 375.028 364.04C370.774 368.44 368.648 374.013 368.648 380.76H357.428ZM357.648 456C354.128 456 351.414 455.12 349.508 453.36C347.601 451.453 346.648 448.667 346.648 445V346.66C346.648 343.14 347.601 340.427 349.508 338.52C351.414 336.613 354.128 335.66 357.648 335.66C361.314 335.66 364.028 336.613 365.788 338.52C367.694 340.28 368.648 342.993 368.648 346.66V445C368.648 448.52 367.694 451.233 365.788 453.14C364.028 455.047 361.314 456 357.648 456ZM456.28 456C453.053 456 450.34 454.9 448.14 452.7C445.94 450.5 444.84 447.787 444.84 444.56V295.62C444.84 292.247 445.94 289.533 448.14 287.48C450.34 285.28 453.053 284.18 456.28 284.18C459.653 284.18 462.367 285.28 464.42 287.48C466.62 289.533 467.72 292.247 467.72 295.62V444.56C467.72 447.787 466.62 450.5 464.42 452.7C462.367 454.9 459.653 456 456.28 456ZM551.476 456C548.25 456 545.536 454.9 543.336 452.7C541.136 450.5 540.036 447.787 540.036 444.56V284.18H562.916V444.56C562.916 447.787 561.816 450.5 559.616 452.7C557.416 454.9 554.703 456 551.476 456ZM492.516 305.3C489.436 305.3 486.87 304.347 484.816 302.44C482.91 300.387 481.956 297.82 481.956 294.74C481.956 291.66 482.91 289.167 484.816 287.26C486.87 285.207 489.436 284.18 492.516 284.18H610.216C613.296 284.18 615.79 285.207 617.696 287.26C619.75 289.167 620.776 291.66 620.776 294.74C620.776 297.82 619.75 300.387 617.696 302.44C615.79 304.347 613.296 305.3 610.216 305.3H492.516ZM612.963 380.76C612.963 371.96 615.089 364.113 619.343 357.22C623.743 350.18 629.609 344.607 636.943 340.5C644.276 336.393 652.343 334.34 661.143 334.34C669.943 334.34 676.469 335.807 680.723 338.74C685.123 341.527 686.809 344.9 685.783 348.86C685.343 350.913 684.463 352.527 683.143 353.7C681.969 354.727 680.576 355.387 678.963 355.68C677.349 355.973 675.589 355.9 673.683 355.46C664.296 353.553 655.863 353.407 648.383 355.02C640.903 356.633 634.963 359.64 630.563 364.04C626.309 368.44 624.183 374.013 624.183 380.76H612.963ZM613.183 456C609.663 456 606.949 455.12 605.043 453.36C603.136 451.453 602.183 448.667 602.183 445V346.66C602.183 343.14 603.136 340.427 605.043 338.52C606.949 336.613 609.663 335.66 613.183 335.66C616.849 335.66 619.563 336.613 621.323 338.52C623.229 340.28 624.183 342.993 624.183 346.66V445C624.183 448.52 623.229 451.233 621.323 453.14C619.563 455.047 616.849 456 613.183 456ZM745.906 456.88C733.733 456.88 722.88 454.313 713.346 449.18C703.96 443.9 696.553 436.713 691.126 427.62C685.846 418.38 683.206 407.82 683.206 395.94C683.206 383.913 685.7 373.353 690.686 364.26C695.82 355.02 702.86 347.833 711.806 342.7C720.753 337.42 731.02 334.78 742.606 334.78C754.046 334.78 763.873 337.347 772.086 342.48C780.3 347.467 786.533 354.433 790.786 363.38C795.186 372.18 797.386 382.373 797.386 393.96C797.386 396.747 796.433 399.093 794.526 401C792.62 402.76 790.2 403.64 787.266 403.64H698.606V386.04H786.606L777.586 392.2C777.44 384.867 775.973 378.34 773.186 372.62C770.4 366.753 766.44 362.133 761.306 358.76C756.173 355.387 749.94 353.7 742.606 353.7C734.246 353.7 727.06 355.533 721.046 359.2C715.18 362.867 710.706 367.927 707.626 374.38C704.546 380.687 703.006 387.873 703.006 395.94C703.006 404.007 704.84 411.193 708.506 417.5C712.173 423.807 717.233 428.793 723.686 432.46C730.14 436.127 737.546 437.96 745.906 437.96C750.453 437.96 755.073 437.153 759.766 435.54C764.606 433.78 768.493 431.8 771.426 429.6C773.626 427.987 775.973 427.18 778.466 427.18C781.106 427.033 783.38 427.767 785.286 429.38C787.78 431.58 789.1 434 789.246 436.64C789.393 439.28 788.22 441.553 785.726 443.46C780.74 447.42 774.506 450.647 767.026 453.14C759.693 455.633 752.653 456.88 745.906 456.88ZM916.647 456.22C913.42 456.22 910.707 455.193 908.507 453.14C906.454 450.94 905.427 448.227 905.427 445V390.88C905.427 382.52 903.887 375.7 900.807 370.42C897.727 365.14 893.547 361.253 888.267 358.76C883.134 356.12 877.194 354.8 870.447 354.8C864.287 354.8 858.714 356.047 853.727 358.54C848.74 361.033 844.78 364.407 841.847 368.66C838.914 372.767 837.447 377.533 837.447 382.96H823.587C823.587 373.72 825.787 365.507 830.187 358.32C834.734 350.987 840.894 345.193 848.667 340.94C856.44 336.687 865.167 334.56 874.847 334.56C884.967 334.56 893.987 336.76 901.907 341.16C909.974 345.413 916.28 351.72 920.827 360.08C925.52 368.44 927.867 378.707 927.867 390.88V445C927.867 448.227 926.767 450.94 924.567 453.14C922.514 455.193 919.874 456.22 916.647 456.22ZM826.227 456.22C823 456.22 820.287 455.193 818.087 453.14C816.034 450.94 815.007 448.227 815.007 445V346.88C815.007 343.507 816.034 340.793 818.087 338.74C820.287 336.687 823 335.66 826.227 335.66C829.6 335.66 832.314 336.687 834.367 338.74C836.42 340.793 837.447 343.507 837.447 346.88V445C837.447 448.227 836.42 450.94 834.367 453.14C832.314 455.193 829.6 456.22 826.227 456.22ZM997.748 456C990.415 456 983.815 454.167 977.948 450.5C972.081 446.687 967.461 441.553 964.088 435.1C960.715 428.647 959.028 421.387 959.028 413.32V308.38C959.028 305.153 960.055 302.513 962.108 300.46C964.161 298.407 966.801 297.38 970.028 297.38C973.255 297.38 975.895 298.407 977.948 300.46C980.001 302.513 981.028 305.153 981.028 308.38V413.32C981.028 419.187 982.641 424.1 985.868 428.06C989.095 432.02 993.055 434 997.748 434H1005.23C1007.87 434 1010.07 435.027 1011.83 437.08C1013.73 439.133 1014.69 441.773 1014.69 445C1014.69 448.227 1013.44 450.867 1010.95 452.92C1008.6 454.973 1005.52 456 1001.71 456H997.748ZM948.908 358.98C945.828 358.98 943.335 358.1 941.428 356.34C939.521 354.58 938.568 352.38 938.568 349.74C938.568 346.807 939.521 344.46 941.428 342.7C943.335 340.94 945.828 340.06 948.908 340.06H999.728C1002.81 340.06 1005.3 340.94 1007.21 342.7C1009.11 344.46 1010.07 346.807 1010.07 349.74C1010.07 352.38 1009.11 354.58 1007.21 356.34C1005.3 358.1 1002.81 358.98 999.728 358.98H948.908ZM1085.83 456.88C1073.95 456.88 1063.46 454.313 1054.37 449.18C1045.28 443.9 1038.09 436.713 1032.81 427.62C1027.68 418.38 1025.11 407.82 1025.11 395.94C1025.11 383.913 1027.68 373.353 1032.81 364.26C1038.09 355.02 1045.28 347.833 1054.37 342.7C1063.46 337.42 1073.95 334.78 1085.83 334.78C1097.56 334.78 1107.98 337.42 1117.07 342.7C1126.16 347.833 1133.28 355.02 1138.41 364.26C1143.69 373.353 1146.33 383.913 1146.33 395.94C1146.33 407.82 1143.76 418.38 1138.63 427.62C1133.5 436.713 1126.38 443.9 1117.29 449.18C1108.2 454.313 1097.71 456.88 1085.83 456.88ZM1085.83 437.08C1093.46 437.08 1100.2 435.32 1106.07 431.8C1111.94 428.28 1116.48 423.44 1119.71 417.28C1123.08 411.12 1124.77 404.007 1124.77 395.94C1124.77 387.873 1123.08 380.76 1119.71 374.6C1116.48 368.293 1111.94 363.38 1106.07 359.86C1100.2 356.34 1093.46 354.58 1085.83 354.58C1078.2 354.58 1071.46 356.34 1065.59 359.86C1059.72 363.38 1055.1 368.293 1051.73 374.6C1048.36 380.76 1046.67 387.873 1046.67 395.94C1046.67 404.007 1048.36 411.12 1051.73 417.28C1055.1 423.44 1059.72 428.28 1065.59 431.8C1071.46 435.32 1078.2 437.08 1085.83 437.08Z" fill="white"/>
</svg>
