<svg width="671" height="223" viewBox="0 0 671 223" fill="none" xmlns="http://www.w3.org/2000/svg">
<rect x="0.707123" width="2.21809" height="19.5017" rx="1.10904" transform="matrix(0.707123 -0.707091 0.707123 0.707091 623.543 198.084)" fill="#2E6A1E" stroke="#2E6A1E"/>
<path d="M655.169 188.75C655.602 189.183 655.602 189.885 655.169 190.318L642.494 202.992C642.061 203.425 641.359 203.426 640.925 202.993C640.492 202.56 640.492 201.857 640.925 201.424L653.6 188.75C654.034 188.317 654.736 188.317 655.169 188.75Z" fill="#2E6A1E" stroke="#2E6A1E"/>
<path d="M641.243 201.745C641.53 201.779 641.78 201.958 641.904 202.22L642.02 202.465C642.229 202.905 642.18 203.425 641.892 203.818L641.584 204.239L641.577 204.25L641.57 204.261L641.094 204.985L641.083 205.003L641.074 205.02L640.598 205.895L640.585 205.921L640.575 205.946L640.25 206.746L640.244 206.761L640.239 206.776L639.989 207.526L639.984 207.54L639.98 207.554L639.805 208.205L639.802 208.213L639.8 208.222L639.725 208.547L639.721 208.566L639.718 208.586L639.643 209.086L639.641 209.097V209.1C639.641 209.102 639.64 209.104 639.64 209.107C639.639 209.113 639.639 209.122 639.637 209.134C639.634 209.156 639.63 209.189 639.625 209.228C639.616 209.307 639.603 209.415 639.59 209.529C639.577 209.651 639.565 209.808 639.555 209.93C639.55 209.992 639.546 210.047 639.543 210.087C639.542 210.106 639.54 210.123 639.54 210.134C639.539 210.139 639.54 210.143 639.54 210.146C639.539 210.148 639.539 210.149 639.539 210.15V210.151L639.538 210.17V210.188L639.591 216.657C639.597 217.292 639.084 217.81 638.449 217.81C637.817 217.81 637.305 217.298 637.305 216.667V210.994L637.69 208.252C637.797 207.489 637.97 206.737 638.208 206.005L638.593 205.064L638.979 204.294L639.439 203.546L639.438 203.545L639.946 202.772L640.474 202.073C640.654 201.835 640.947 201.71 641.243 201.745Z" fill="#2E6A1E" stroke="#2E6A1E"/>
<path d="M635.062 198.009C635.212 199.859 634.393 201.609 633.537 201.609C631.612 198.859 632.662 195.459 627.611 192.783C621.286 190.108 616.11 191.058 617.51 188.033C633.137 187.458 635.062 196.379 635.062 198.009Z" fill="#2E6A1E"/>
<path d="M616.41 195.859C615.96 188.233 618.06 186.958 617.51 188.832C620.661 189.233 617.335 195.709 622.386 201.894C626.661 206.109 629.362 201.784 630.312 206.634C619.485 209.659 616.522 197.761 616.41 195.859Z" fill="#2E6A1E"/>
<path d="M632.087 205.134C633.012 205.984 629.462 207.009 629.087 206.759C627.595 206.759 624.161 204.495 624.161 203.928C622.536 203.228 628.011 204.709 629.462 203.428C630.953 203.428 632.087 204.568 632.087 205.134Z" fill="#2E6A1E"/>
<path d="M635.137 198.334C635.362 202.559 633.462 205.809 631.362 205.509C627.911 204.159 631.337 203.834 631.912 200.334C632.087 200.109 632.037 197.859 631.787 197.209C633.312 194.984 634.98 195.384 635.137 198.334Z" fill="#2E6A1E"/>
<path d="M618.351 191.433C618.351 193.284 617.395 197.934 617.16 197.934C616.71 198.984 616.01 193.759 616.01 191.908C616.01 190.058 615.81 188.533 617.185 188.083C618.71 187.758 618.351 189.583 618.351 191.433Z" fill="#2E6A1E"/>
<path d="M626.186 191.733C625.486 191.983 622.436 191.133 620.586 191.158C618.335 191.189 617.56 190.937 617.56 190.633C617.56 190.33 619.536 190.058 620.586 190.058C621.635 190.058 626.186 191.43 626.186 191.733Z" fill="#2E6A1E"/>
<path d="M619.185 192.358C619.235 193.384 619.268 194.259 619.185 194.259C619.103 194.259 618.885 193.341 618.885 192.333C618.885 191.325 619.028 190.358 619.11 190.358C619.193 190.358 619.185 191.35 619.185 192.358Z" fill="#2E6A1E"/>
<path d="M663.74 180.783C665.29 184.358 659.39 182.533 654.064 183.614C642.188 185.733 643.388 192.908 639.638 191.508C638.312 189.758 643.288 182.473 652.364 180.658C658.692 179.392 663.44 179.808 663.74 180.783Z" fill="#2E6A1E"/>
<path d="M641.738 193.208C640.613 199.259 646.238 202.709 641.113 200.809C641.663 204.909 638.238 199.659 638.463 194.409C638.137 191.033 642.088 184.808 643.413 185.658C646.713 187.775 642.738 188.283 641.738 193.208Z" fill="#2E6A1E"/>
<path d="M663.115 192.058C659.84 205.509 650.264 206.784 644.463 204.734C635.987 195.834 651.989 210.185 658.815 195.184C662.365 186.533 659.539 182.182 662.065 180.733C665.29 178.883 663.815 189.358 663.115 192.058Z" fill="#2E6A1E"/>
<path d="M664.012 181.657C664.012 182.569 664.276 185.333 663.462 185.333C662.647 185.333 659.19 181.445 659.19 180.534C659.19 179.622 661.75 179.984 662.565 179.984C663.38 179.984 664.012 180.746 664.012 181.657Z" fill="#2E6A1E"/>
<path d="M648.314 204.834C648.664 206.159 644.838 204.934 643.588 204.359C641.713 203.559 641.513 203.267 641.513 202.784C641.513 202.301 643.374 201.434 644.713 201.434C652.364 204.434 655.139 198.759 648.314 204.834Z" fill="#2E6A1E"/>
<path d="M99.384 123L123.96 60.6H132.408L156.984 123H147.768L141.336 106.104H114.936L108.6 123H99.384ZM117.816 98.424H138.36L127.992 71.16L117.816 98.424ZM184.304 143.352C172.592 143.352 163.088 136.344 161.648 126.456L170.096 124.152C171.056 130.776 177.104 135.48 184.688 135.48C193.424 135.48 199.664 129.432 199.664 121.08V113.4L199.76 112.536C195.92 118.104 189.68 121.464 182.192 121.464C169.136 121.464 159.728 111.576 159.728 97.752C159.728 83.832 169.136 73.848 182.384 73.848C189.872 73.848 196.112 77.304 199.952 82.872L200.624 75H207.344V120.312C207.344 133.752 197.744 143.352 184.304 143.352ZM183.728 114.168C193.04 114.168 199.664 107.352 199.664 97.752C199.664 88.152 193.04 81.336 183.728 81.336C174.416 81.336 167.792 88.152 167.792 97.752C167.792 107.352 174.416 114.168 183.728 114.168ZM219.613 123V75H226.141L226.909 82.68C229.309 75.672 236.701 72.312 244.957 74.616L244.573 83.64C236.893 79.8 227.293 82.968 227.293 93.816V123H219.613ZM252.238 123V60.6H260.302V123H252.238ZM289.094 123V68.28H266.63V60.6H319.622V68.28H297.158V123H289.094ZM325.925 123V75H332.453L333.221 82.68C335.621 75.672 343.013 72.312 351.269 74.616L350.885 83.64C343.205 79.8 333.605 82.968 333.605 93.816V123H325.925ZM378.536 124.152C364.616 124.152 354.728 113.688 354.728 99C354.728 84.312 364.328 73.848 377.768 73.848C392.456 73.848 401.48 86.04 400.328 102.168H363.272C364.616 110.616 370.568 116.472 378.728 116.472C385.256 116.472 390.44 112.632 391.592 107.256L399.848 109.944C397.544 118.392 388.904 124.152 378.536 124.152ZM363.368 94.68H392.168C391.016 86.616 385.256 81.336 377.96 81.336C370.376 81.336 364.712 86.808 363.368 94.68ZM409.644 123V75H416.172L417.036 83.256C419.628 77.496 425.964 73.848 433.068 73.848C443.916 73.848 451.692 82.296 451.692 93.816V123H444.012V94.584C444.012 86.904 438.828 81.528 431.532 81.528C423.468 81.528 417.324 87.96 417.324 96.888V123H409.644ZM482.978 123.384C474.914 125.688 464.354 123.384 464.354 112.632V82.488H456.674V75H459.554C462.722 75 464.738 72.696 464.738 69.048V62.712H472.034V75H482.786V82.488H472.034V110.712C472.034 116.088 477.602 117.624 482.594 115.704L482.978 123.384ZM511.76 124.152C497.744 124.152 487.76 113.688 487.76 99C487.76 84.312 497.744 73.848 511.76 73.848C525.776 73.848 535.76 84.312 535.76 99C535.76 113.688 525.776 124.152 511.76 124.152ZM511.76 116.472C521.072 116.472 527.696 109.176 527.696 99C527.696 88.728 521.072 81.336 511.76 81.336C502.448 81.336 495.824 88.728 495.824 99C495.824 109.176 502.448 116.472 511.76 116.472Z" fill="#2E6A1E"/>
<rect x="0.707109" width="5.43564" height="40" rx="2.71782" transform="matrix(0.707109 -0.707104 0.707109 0.707104 226.877 37.6658)" fill="#2E6A1E" stroke="#2E6A1E"/>
<path d="M290.684 19.1441C291.745 20.2054 291.745 21.9262 290.684 22.9876L265.335 48.3363C264.273 49.3974 262.553 49.3976 261.491 48.3363C260.43 47.275 260.43 45.5542 261.491 44.4928L286.84 19.1441C287.902 18.0828 289.622 18.0828 290.684 19.1441Z" fill="#2E6A1E" stroke="#2E6A1E"/>
<path d="M260.545 45.8415C261.01 45.2243 261.769 44.9005 262.537 44.9899C263.236 45.0716 263.851 45.4854 264.19 46.0964L264.255 46.2214L264.487 46.7116C264.952 47.6927 264.878 48.8389 264.304 49.7487L264.182 49.9274L263.567 50.7702L263.559 50.78L263.552 50.7907L262.602 52.2409L262.59 52.2585L262.581 52.2761L261.631 54.0261L261.618 54.0515L261.607 54.0768L260.958 55.6765L260.951 55.6921L260.441 57.2214L260.438 57.2351L260.088 58.5349L260.084 58.5524L259.933 59.2028L259.929 59.2214L259.926 59.2409L259.776 60.2409L259.774 60.2526V60.2575C259.774 60.2606 259.773 60.2654 259.772 60.2712C259.771 60.2832 259.768 60.3015 259.765 60.3239C259.76 60.3688 259.752 60.4331 259.743 60.5114C259.724 60.6686 259.699 60.8832 259.673 61.1101C259.647 61.3439 259.622 61.6508 259.603 61.8952C259.594 62.0183 259.586 62.1276 259.581 62.2058C259.578 62.2446 259.575 62.2759 259.574 62.2976C259.573 62.3084 259.572 62.3172 259.572 62.3229V62.3317L259.57 62.3503L259.571 62.3688L259.678 75.3054C259.691 76.8532 258.44 78.1149 256.892 78.1149C255.353 78.1149 254.106 76.8675 254.106 75.3288V63.9489L254.88 58.4304C255.098 56.8714 255.453 55.3345 255.94 53.8376L256.726 51.9206L257.505 50.363L258.447 48.8268L258.446 48.8259L259.489 47.2399L260.545 45.8415Z" fill="#2E6A1E" stroke="#2E6A1E"/>
<path d="M250.12 38.0152C250.42 41.7151 248.783 45.2151 247.07 45.2151C243.22 39.7152 245.32 32.9152 235.22 27.5652C222.57 22.2152 212.22 24.1152 215.02 18.0652C246.27 16.9152 250.12 34.7567 250.12 38.0152Z" fill="#2E6A1E"/>
<path d="M212.82 33.7152C211.92 18.4652 216.12 15.9152 215.02 19.6628C221.32 20.4652 214.67 33.4152 224.77 45.7845C233.32 54.2151 238.72 45.5651 240.62 55.2651C218.97 61.3151 213.045 37.5204 212.82 33.7152Z" fill="#2E6A1E"/>
<path d="M244.17 52.2651C246.02 53.9651 238.92 56.0151 238.17 55.5151C235.188 55.5151 228.32 50.9858 228.32 49.8537C225.07 48.4537 236.02 51.4151 238.92 48.8537C241.903 48.8537 244.17 51.1329 244.17 52.2651Z" fill="#2E6A1E"/>
<path d="M250.27 38.6651C250.72 47.1151 246.92 53.6151 242.72 53.0151C235.82 50.3151 242.67 49.6651 243.82 42.6651C244.17 42.2151 244.07 37.7152 243.57 36.4152C246.62 31.9652 249.956 32.7652 250.27 38.6651Z" fill="#2E6A1E"/>
<path d="M216.702 24.8652C216.702 28.5655 214.79 37.8652 214.32 37.8652C213.42 39.9651 212.02 29.5155 212.02 25.8152C212.02 22.1149 211.62 19.0652 214.37 18.1652C217.42 17.5152 216.702 21.1649 216.702 24.8652Z" fill="#2E6A1E"/>
<path d="M232.37 25.4652C230.97 25.9652 224.87 24.2652 221.17 24.3152C216.67 24.376 215.12 23.8727 215.12 23.2652C215.12 22.6577 219.072 22.1152 221.17 22.1152C223.269 22.1152 232.37 24.8577 232.37 25.4652Z" fill="#2E6A1E"/>
<path d="M218.37 26.7152C218.47 28.7652 218.536 30.5152 218.37 30.5152C218.205 30.5152 217.77 28.681 217.77 26.6652C217.77 24.6494 218.055 22.7152 218.22 22.7152C218.386 22.7152 218.37 24.6994 218.37 26.7152Z" fill="#2E6A1E"/>
<path d="M307.471 3.56527C310.571 10.7153 298.771 7.06528 288.121 9.22744C264.37 13.4652 266.77 27.8152 259.27 25.0152C256.62 21.5152 266.57 6.94527 284.721 3.31527C297.376 0.784216 306.871 1.61529 307.471 3.56527Z" fill="#2E6A1E"/>
<path d="M263.47 28.4152C261.22 40.5151 272.47 47.4151 262.22 43.6151C263.32 51.8151 256.47 41.3151 256.92 30.8152C256.27 24.0652 264.17 11.6153 266.82 13.3152C273.42 17.5492 265.47 18.5652 263.47 28.4152Z" fill="#2E6A1E"/>
<path d="M306.221 26.1152C299.671 53.0151 280.521 55.5651 268.92 51.4651C251.97 33.6652 283.971 62.3651 297.621 32.3652C304.721 15.0652 299.069 6.36295 304.121 3.46529C310.571 -0.234701 307.621 20.7153 306.221 26.1152Z" fill="#2E6A1E"/>
<path d="M308.014 5.31428C308.014 7.1368 308.543 12.6642 306.914 12.6642C305.284 12.6642 298.371 4.88974 298.371 3.06721C298.371 1.24468 303.491 1.96721 305.121 1.96721C306.75 1.96721 308.014 3.49175 308.014 5.31428Z" fill="#2E6A1E"/>
<path d="M276.62 51.6651C277.32 54.3151 269.67 51.8651 267.17 50.7151C263.42 49.1151 263.02 48.5316 263.02 47.5651C263.02 46.5986 266.742 44.8651 269.42 44.8651C284.721 50.8651 290.271 39.5151 276.62 51.6651Z" fill="#2E6A1E"/>
<path d="M2.304 211V187.6H12.168C16.38 187.6 19.44 190.696 19.44 194.944C19.44 199.228 16.308 202.36 12.024 202.36H5.328V211H2.304ZM5.328 199.48H12.024C14.472 199.48 16.272 197.608 16.272 194.98C16.272 192.352 14.472 190.48 12.024 190.48H5.328V199.48ZM22.4485 211V193H24.8965L25.1845 195.88C26.0845 193.252 28.8565 191.992 31.9525 192.856L31.8085 196.24C28.9285 194.8 25.3285 195.988 25.3285 200.056V211H22.4485ZM42.1777 211.432C36.9577 211.432 33.2497 207.508 33.2497 202C33.2497 196.492 36.8497 192.568 41.8897 192.568C47.3977 192.568 50.7817 197.14 50.3497 203.188H36.4537C36.9577 206.356 39.1897 208.552 42.2497 208.552C44.6977 208.552 46.6417 207.112 47.0737 205.096L50.1697 206.104C49.3057 209.272 46.0657 211.432 42.1777 211.432ZM36.4897 200.38H47.2897C46.8577 197.356 44.6977 195.376 41.9617 195.376C39.1177 195.376 36.9937 197.428 36.4897 200.38ZM53.8431 211V193H56.2911L56.6151 196.096C57.5871 193.936 59.9631 192.568 62.6271 192.568C66.6951 192.568 69.6111 195.736 69.6111 200.056V211H66.7311V200.344C66.7311 197.464 64.7871 195.448 62.0511 195.448C59.0271 195.448 56.7231 197.86 56.7231 201.208V211H53.8431ZM81.6247 211.432C76.3687 211.432 72.6247 207.508 72.6247 202C72.6247 196.492 76.3687 192.568 81.6247 192.568C86.8807 192.568 90.6247 196.492 90.6247 202C90.6247 207.508 86.8807 211.432 81.6247 211.432ZM81.6247 208.552C85.1167 208.552 87.6007 205.816 87.6007 202C87.6007 198.148 85.1167 195.376 81.6247 195.376C78.1327 195.376 75.6487 198.148 75.6487 202C75.6487 205.816 78.1327 208.552 81.6247 208.552ZM101.523 211.144C98.4991 212.008 94.5391 211.144 94.5391 207.112V195.808H91.6591V193H92.7391C93.9271 193 94.6831 192.136 94.6831 190.768V188.392H97.4191V193H101.451V195.808H97.4191V206.392C97.4191 208.408 99.5071 208.984 101.379 208.264L101.523 211.144ZM109.501 211.432C105.937 211.432 103.597 209.38 103.597 206.248C103.597 203.764 105.577 201.748 108.637 201.208L114.181 200.2C114.793 200.092 115.261 199.624 115.261 199.048C115.261 196.78 113.713 195.16 111.517 195.16C109.213 195.16 107.485 196.816 107.341 199.336L104.173 198.976C104.533 195.232 107.521 192.568 111.373 192.568C115.333 192.568 118.141 195.34 118.141 199.192V207.4L118.213 211H115.909L115.405 208.264C114.289 210.208 112.129 211.432 109.501 211.432ZM106.765 206.104C106.765 207.616 108.061 208.624 110.077 208.624C113.101 208.624 115.261 206.536 115.261 203.656V202.396C114.937 202.468 114.541 202.576 114.109 202.648L109.357 203.512C107.773 203.8 106.765 204.808 106.765 206.104ZM215.809 203.116V200.308H228.337V203.116H215.809ZM265.189 211.432C258.853 211.432 254.245 206.32 254.245 199.3C254.245 192.316 258.925 187.168 265.405 187.168C270.553 187.168 274.873 190.408 275.701 194.872L272.245 196.024C271.849 192.568 268.969 190.12 265.333 190.12C260.761 190.12 257.413 193.972 257.413 199.228C257.413 204.556 260.761 208.408 265.477 208.408C269.689 208.408 272.893 205.42 273.037 201.352V201.028H262.525V198.22H275.701L276.421 211H274.405L273.757 205.132C272.929 208.876 269.581 211.432 265.189 211.432ZM286.872 211.432C282.768 211.432 279.888 208.552 279.888 204.376V193H282.768V203.944C282.768 206.572 284.748 208.48 287.52 208.48C290.472 208.48 292.56 206.356 292.56 203.368V193H295.44V207.4L295.512 211H292.992L292.56 208.12C291.768 210.136 289.608 211.432 286.872 211.432ZM306.378 211.432C302.058 211.432 298.89 208.984 298.602 205.672L301.77 204.808C301.914 206.968 303.93 208.696 306.522 208.696C308.538 208.696 310.122 207.616 310.122 206.104C310.122 202.072 299.466 203.656 299.466 197.608C299.466 194.656 302.058 192.568 305.802 192.568C309.546 192.568 312.318 194.62 312.714 197.464L309.69 198.256C309.618 196.492 308.034 195.232 305.874 195.232C303.93 195.232 302.562 196.24 302.562 197.608C302.562 201.496 313.29 199.912 313.29 206.104C313.29 209.2 310.41 211.432 306.378 211.432ZM324.308 211.144C321.284 212.008 317.324 211.144 317.324 207.112V195.808H314.444V193H315.524C316.712 193 317.468 192.136 317.468 190.768V188.392H320.204V193H324.236V195.808H320.204V206.392C320.204 208.408 322.292 208.984 324.164 208.264L324.308 211.144ZM332.286 211.432C328.722 211.432 326.382 209.38 326.382 206.248C326.382 203.764 328.362 201.748 331.422 201.208L336.966 200.2C337.578 200.092 338.046 199.624 338.046 199.048C338.046 196.78 336.498 195.16 334.302 195.16C331.998 195.16 330.27 196.816 330.126 199.336L326.958 198.976C327.318 195.232 330.306 192.568 334.158 192.568C338.118 192.568 340.926 195.34 340.926 199.192V207.4L340.998 211H338.694L338.19 208.264C337.074 210.208 334.914 211.432 332.286 211.432ZM329.55 206.104C329.55 207.616 330.846 208.624 332.862 208.624C335.886 208.624 338.046 206.536 338.046 203.656V202.396C337.722 202.468 337.326 202.576 336.894 202.648L332.142 203.512C330.558 203.8 329.55 204.808 329.55 206.104ZM430.684 203.116V200.308H443.212V203.116H430.684ZM478.624 211.432C473.332 211.432 469.408 208.264 469.12 203.656L472.432 202.792C472.576 206.104 475.132 208.48 478.696 208.48C481.576 208.48 483.808 206.896 483.808 204.664C483.808 199.084 470.128 200.776 470.128 193.288C470.128 189.544 473.584 187.168 477.976 187.168C482.44 187.168 485.824 189.688 486.256 193.432L482.944 194.368C482.656 191.92 480.64 190.048 477.76 190.048C475.456 190.048 473.44 191.272 473.44 193.144C473.44 198.04 487.12 196.6 487.12 204.664C487.12 208.66 483.7 211.432 478.624 211.432ZM498.578 211.432C493.322 211.432 489.578 207.508 489.578 202C489.578 196.492 493.322 192.568 498.578 192.568C503.834 192.568 507.578 196.492 507.578 202C507.578 207.508 503.834 211.432 498.578 211.432ZM498.578 208.552C502.07 208.552 504.554 205.816 504.554 202C504.554 198.148 502.07 195.376 498.578 195.376C495.086 195.376 492.602 198.148 492.602 202C492.602 205.816 495.086 208.552 498.578 208.552ZM517.386 211.432C513.066 211.432 509.898 208.984 509.61 205.672L512.778 204.808C512.922 206.968 514.938 208.696 517.53 208.696C519.546 208.696 521.13 207.616 521.13 206.104C521.13 202.072 510.474 203.656 510.474 197.608C510.474 194.656 513.066 192.568 516.81 192.568C520.554 192.568 523.326 194.62 523.722 197.464L520.698 198.256C520.626 196.492 519.042 195.232 516.882 195.232C514.938 195.232 513.57 196.24 513.57 197.608C513.57 201.496 524.298 199.912 524.298 206.104C524.298 209.2 521.418 211.432 517.386 211.432ZM535.316 211.144C532.292 212.008 528.332 211.144 528.332 207.112V195.808H525.452V193H526.532C527.72 193 528.476 192.136 528.476 190.768V188.392H531.212V193H535.244V195.808H531.212V206.392C531.212 208.408 533.3 208.984 535.172 208.264L535.316 211.144ZM538.542 193H541.422V211H538.542V193ZM539.982 190.696C538.686 190.696 537.75 189.724 537.75 188.392C537.75 187.06 538.686 186.088 539.982 186.088C541.278 186.088 542.214 187.06 542.214 188.392C542.214 189.724 541.278 190.696 539.982 190.696ZM553.807 211.432C548.587 211.432 544.879 207.508 544.879 202C544.879 196.492 548.479 192.568 553.519 192.568C559.027 192.568 562.411 197.14 561.979 203.188H548.083C548.587 206.356 550.819 208.552 553.879 208.552C556.327 208.552 558.271 207.112 558.703 205.096L561.799 206.104C560.935 209.272 557.695 211.432 553.807 211.432ZM548.119 200.38H558.919C558.487 197.356 556.327 195.376 553.591 195.376C550.747 195.376 548.623 197.428 548.119 200.38ZM565.472 211V193H567.92L568.244 196.096C569.216 193.936 571.592 192.568 574.256 192.568C578.324 192.568 581.24 195.736 581.24 200.056V211H578.36V200.344C578.36 197.464 576.416 195.448 573.68 195.448C570.656 195.448 568.352 197.86 568.352 201.208V211H565.472ZM585.406 193H588.286V211H585.406V193ZM586.846 190.696C585.55 190.696 584.614 189.724 584.614 188.392C584.614 187.06 585.55 186.088 586.846 186.088C588.142 186.088 589.078 187.06 589.078 188.392C589.078 189.724 588.142 190.696 586.846 190.696Z" fill="#2E6A1E"/>
<path d="M410 200.5C410 212.926 399.926 223 387.5 223C375.074 223 365 212.926 365 200.5C365 188.074 375.074 178 387.5 178C399.926 178 410 188.074 410 200.5ZM370.65 200.5C370.65 209.806 378.194 217.35 387.5 217.35C396.806 217.35 404.35 209.806 404.35 200.5C404.35 191.194 396.806 183.65 387.5 183.65C378.194 183.65 370.65 191.194 370.65 200.5Z" fill="#2E6A1E"/>
<ellipse cx="379.65" cy="195.05" rx="3.5" ry="3.5" fill="#2E6A1E"/>
<ellipse cx="395.45" cy="195.05" rx="3.5" ry="3.5" fill="#2E6A1E"/>
<path d="M398.95 205.15C398.675 206.2 398.173 206.792 397.6 207.775C396.9 208.7 396.225 209.45 395.225 210.3C394.166 211.052 393.133 211.868 391.75 212.275C390.367 212.682 389.072 212.975 387.575 212.975C386.078 212.975 384.75 212.75 383.325 212.275C382 211.7 381.084 211.227 380.025 210.475C379.075 209.625 378.275 208.975 377.6 208.05C377.027 207.067 376.325 206.1 376.1 205.15L387.55 205.15H398.95Z" fill="#2E6A1E"/>
<path d="M162.569 203.816C162.182 203.06 161.656 202.393 161.021 201.856C160.386 201.319 159.655 200.923 158.873 200.69C158.09 200.457 157.271 200.392 156.464 200.5C155.658 200.608 154.88 200.886 154.176 201.317C153.473 201.749 152.859 202.325 152.37 203.012C151.881 203.699 151.528 204.483 151.331 205.317C151.134 206.151 151.097 207.019 151.223 207.868C151.349 208.718 151.635 209.532 152.064 210.262L154.821 208.452C154.622 208.112 154.489 207.733 154.43 207.337C154.371 206.942 154.388 206.538 154.48 206.149C154.572 205.76 154.737 205.395 154.964 205.075C155.192 204.755 155.478 204.487 155.806 204.286C156.133 204.085 156.496 203.955 156.871 203.905C157.247 203.855 157.628 203.885 157.993 203.994C158.358 204.102 158.698 204.287 158.994 204.537C159.289 204.787 159.535 205.097 159.715 205.45L162.569 203.816Z" fill="#2E6A1E"/>
<rect width="3.60999" height="16.3004" rx="1.80499" transform="matrix(0.866068 -0.499926 0.500074 0.865983 151 208.424)" fill="#2E6A1E"/>
<rect width="3.60997" height="11.558" rx="1.80498" transform="matrix(0.848095 -0.529844 0.529994 0.848001 158.551 203.712)" fill="#2E6A1E"/>
<rect x="163.457" y="185.657" width="3.60062" height="27.0993" rx="1.80031" fill="#2E6A1E"/>
<rect x="172.354" y="186.55" width="3.5006" height="17.4496" rx="1.7503" fill="#2E6A1E"/>
<rect x="181.155" y="196.899" width="3.55061" height="8.94978" rx="1.7753" fill="#2E6A1E"/>
<rect x="190.007" y="200.799" width="3.55061" height="14.1496" rx="1.7753" fill="#2E6A1E"/>
<path d="M175.854 188.125C175.854 187.435 175.904 185.8 175.386 184.241C175.077 183.604 174.624 183.025 174.053 182.537C173.482 182.05 172.803 181.663 172.057 181.399C171.311 181.136 170.511 181 169.703 181C168.895 181 168.096 181.136 167.349 181.399C166.603 181.663 165.925 182.05 165.354 182.537C164.783 183.025 164.33 183.604 164.02 184.241C163.711 184.878 163.477 186.41 163.477 187.1H167.053C167.053 186.872 167.053 186.325 167.478 185.65C167.628 185.5 167.94 185.186 168.128 185.025C168.316 184.865 168.681 184.737 168.927 184.65C169.173 184.563 169.437 184.518 169.703 184.518C169.97 184.518 170.233 184.563 170.48 184.65C170.726 184.737 171.065 184.865 171.254 185.025C171.442 185.186 172.052 185.915 172.154 186.125C172.304 186.2 172.329 187.95 172.379 188.15L175.854 188.125Z" fill="#2E6A1E"/>
<path d="M182.805 184.975C182.63 183.65 181.655 181.425 181.055 180.45C180.438 179.179 179.399 178.041 178.259 177.068C177.119 176.095 175.766 175.324 174.276 174.797C172.787 174.271 171.19 174 169.578 174C167.966 174 166.369 174.271 164.88 174.797C163.39 175.324 162.037 176.095 160.897 177.068C159.757 178.041 158.853 179.195 158.236 180.466C156.601 183.125 156.401 185.774 156.401 187.15L156.476 187.75L156.701 188.2L157.101 188.625L157.601 188.875L158.076 188.95L158.651 188.9L159.126 188.675L159.476 188.325L159.702 188.025L159.902 187.55L159.952 186.6L160.077 185.4C160.377 183.725 161.127 182.575 161.502 181.9C161.946 181.1 162.969 180.145 163.736 179.49C164.503 178.836 165.414 178.317 166.416 177.962C167.419 177.608 168.493 177.426 169.578 177.426C170.663 177.426 171.738 177.608 172.74 177.962C173.742 178.317 174.937 178.92 175.704 179.575C176.471 180.229 177.23 180.9 177.755 181.85C178.505 183.025 179.03 184.25 179.155 184.975L179.405 186.425V187.15V187.6L179.53 187.925L179.78 188.275L179.98 188.525L180.355 188.775L180.88 188.975H181.255L181.63 188.925L182.08 188.75L182.43 188.5L182.78 188.025L182.93 187.55L182.955 186.825L182.88 185.625L182.805 184.975Z" fill="#2E6A1E"/>
<path d="M184.556 198.574C184.556 197.215 183.913 195.912 182.769 194.951C181.625 193.989 180.073 193.45 178.455 193.45C176.837 193.45 175.285 193.989 174.141 194.951C172.996 195.912 172.354 197.215 172.354 198.574L175.879 199.474C175.879 199.03 176.229 198.074 176.504 197.849C176.854 197.399 177.926 196.924 178.455 196.924C178.983 196.924 179.531 197.01 179.905 197.324C180.58 197.624 181.155 198.655 181.155 199.099L184.556 198.574Z" fill="#2E6A1E"/>
<path d="M193.432 202.124C193.432 200.765 192.789 199.462 191.645 198.5C190.501 197.539 188.949 196.999 187.331 196.999C185.713 196.999 184.161 197.539 183.017 198.5C181.873 199.462 181.23 200.765 181.23 202.124L184.756 203.024C184.756 202.58 185.106 201.624 185.381 201.399C185.731 200.949 186.803 200.474 187.331 200.474C187.86 200.474 188.408 200.56 188.781 200.874C189.457 201.174 190.032 202.205 190.032 202.649L193.432 202.124Z" fill="#2E6A1E"/>
<path d="M192.315 219.111C191.913 220.336 191.387 222.586 189.227 221.528C187.067 220.471 188.748 219.198 189.113 217.5C190.244 214.377 189.521 210.222 192.537 209.256C193.616 209.487 194.227 213.964 192.315 219.111Z" fill="#2E6A1E"/>
</svg>
