<svg width="1206" height="550" viewBox="0 0 1206 550" fill="none" xmlns="http://www.w3.org/2000/svg">
<rect y="239" width="1206" height="311" rx="40" fill="#1E1E1E"/>
<ellipse cx="489.972" cy="211" rx="209.972" ry="211" fill="#2E6A1E"/>
<rect x="0.705396" width="21.5764" height="142.829" rx="10.7882" transform="matrix(0.705396 -0.708814 0.705396 0.708814 370.392 229.661)" fill="white" stroke="white"/>
<path d="M595.085 164.898C599.288 169.121 599.288 175.968 595.085 180.192L506.377 269.33C502.174 273.553 495.36 273.553 491.157 269.33C486.954 265.107 486.954 258.26 491.157 254.036L579.865 164.898C584.068 160.675 590.882 160.675 595.085 164.898Z" fill="white" stroke="white"/>
<path d="M487.739 258.901C489.572 256.46 492.528 255.141 495.557 255.394L495.851 255.424C498.792 255.769 501.361 257.56 502.703 260.186L502.829 260.443L503.662 262.211C505.529 266.172 505.161 270.812 502.72 274.421L502.477 274.767L500.313 277.744L500.305 277.753L500.298 277.764L496.974 282.864L496.962 282.88L496.952 282.899L493.628 289.053L493.615 289.078L493.605 289.103L491.329 294.729L491.323 294.745L491.319 294.759L489.569 300.034L489.565 300.048L489.561 300.062L488.335 304.633L488.331 304.651L487.806 306.937L487.802 306.956L487.799 306.975L487.275 310.492L487.769 310.565L487.274 310.492L487.273 310.503V310.504C487.273 310.505 487.272 310.506 487.272 310.507C487.271 310.51 487.271 310.515 487.271 310.52C487.269 310.531 487.267 310.547 487.265 310.568C487.26 310.61 487.252 310.671 487.242 310.75C487.223 310.906 487.196 311.132 487.163 311.407L486.922 313.5C486.834 314.3 486.746 315.361 486.68 316.219C486.647 316.649 486.619 317.03 486.6 317.302C486.59 317.439 486.583 317.548 486.577 317.624C486.575 317.661 486.573 317.691 486.572 317.71C486.571 317.72 486.571 317.728 486.571 317.733C486.57 317.735 486.57 317.737 486.57 317.739V317.741L486.569 317.759V317.778L486.948 363.326C486.998 369.436 482.058 374.417 475.948 374.417C469.872 374.417 464.947 369.492 464.947 363.417V323.258L468.451 298.136C468.675 296.532 469.022 294.948 469.488 293.397L469.695 292.735L471.44 287.354L474.227 280.527L477.005 274.943L480.313 269.519L480.314 269.52L483.98 263.906L487.739 258.901Z" fill="white" stroke="white"/>
<path d="M328.166 163.718C327.491 165.61 327.213 167.293 327.324 168.802C327.473 170.825 328.318 172.493 329.751 173.9C331.172 175.295 333.165 176.426 335.615 177.416C336.642 177.83 337.755 178.219 338.947 178.596C340.096 183.728 340.367 190.446 340.989 198.326C342.348 215.531 345.377 237.915 363.147 259.784L363.164 259.804L363.184 259.824C370.716 267.287 377.577 270.99 383.744 272.866C389.901 274.738 395.345 274.781 399.977 274.963C404.642 275.147 408.405 275.475 411.437 277.775C414.407 280.029 416.769 284.258 418.42 292.449C399.776 297.597 384.533 296.335 372.135 291.359C359.632 286.34 349.981 277.528 342.644 267.615C335.306 257.701 330.293 246.702 327.066 237.341C324.039 228.559 322.593 221.249 322.266 217.664L322.215 216.998C320.642 190.22 323.53 174.65 326.294 167.446C326.955 165.722 327.604 164.498 328.166 163.718ZM330.312 162.463C384.343 160.634 414.668 175.211 431.493 191.615C448.425 208.123 451.749 226.538 451.749 232.147V232.167L451.75 232.188C452.268 238.614 451.11 244.861 449.094 249.486C448.085 251.799 446.872 253.686 445.565 254.986C444.342 256.203 443.072 256.874 441.834 256.957C438.596 252.244 436.58 247.253 434.855 242.096C433.111 236.881 431.645 231.439 429.507 226.051C425.202 215.205 418.127 204.426 400.34 194.958L400.321 194.949L400.301 194.94L398.227 194.075C376.862 185.322 357.5 182.358 344.605 179.134C342.879 178.703 341.272 178.266 339.791 177.812C339.717 177.504 339.64 177.201 339.559 176.905C338.811 174.188 337.744 171.92 336.121 170.237C334.599 168.658 332.62 167.627 330.047 167.199C330.425 165.777 330.586 164.609 330.56 163.736C330.545 163.247 330.472 162.816 330.32 162.478C330.318 162.473 330.315 162.468 330.312 162.463ZM329.477 163.1C329.519 163.267 329.551 163.486 329.56 163.766C329.585 164.605 329.408 165.85 328.935 167.471L328.771 168.033L329.352 168.107C332.01 168.447 333.948 169.424 335.401 170.931C336.864 172.449 337.871 174.541 338.595 177.17C338.621 177.265 338.645 177.361 338.67 177.457C337.718 177.144 336.823 176.825 335.99 176.489C333.597 175.522 331.739 174.45 330.451 173.186C329.175 171.933 328.451 170.487 328.321 168.729C328.206 167.162 328.562 165.313 329.477 163.1Z" fill="white" stroke="white"/>
<path d="M376.458 273.449L376.157 273.318C375.797 273.162 375.491 273.024 375.236 272.901C375.319 272.906 375.405 272.911 375.496 272.917C376.557 272.988 378.091 273.161 379.965 273.373C381.833 273.585 384.027 273.833 386.39 274.049C391.111 274.481 396.53 274.787 401.414 274.417C406.182 274.055 410.552 273.041 413.235 270.763C418.251 270.809 422.672 272.746 425.851 275.164C427.459 276.387 428.739 277.726 429.612 278.988C430.494 280.263 430.926 281.41 430.926 282.258V282.477L431.087 282.625C431.815 283.297 432.041 283.922 431.992 284.495C431.941 285.096 431.58 285.757 430.889 286.462C429.504 287.874 427.003 289.25 424.151 290.409C421.315 291.562 418.196 292.476 415.629 292.992C414.345 293.25 413.211 293.406 412.328 293.445C411.886 293.465 411.519 293.454 411.233 293.417C410.936 293.378 410.776 293.316 410.707 293.271L410.581 293.187H410.429C407.922 293.187 404.539 292.223 400.833 290.674C397.141 289.131 393.181 287.029 389.541 284.799C385.9 282.569 382.592 280.219 380.2 278.187C379.003 277.17 378.048 276.242 377.396 275.457C377.071 275.064 376.829 274.717 376.672 274.422C376.511 274.12 376.458 273.909 376.458 273.777V273.449Z" fill="white" stroke="white"/>
<path d="M437.6 218.663C440.131 217.101 442.476 216.691 444.494 217.307C446.514 217.924 448.319 219.604 449.696 222.46C450.987 225.139 451.884 228.818 452.216 233.508L452.274 234.459C453.058 249.242 450.139 262.29 445.225 271.36C440.311 280.431 433.497 285.382 426.48 284.407C423.502 283.233 421.284 282.18 419.682 281.19C418.066 280.19 417.119 279.28 416.636 278.419C416.168 277.584 416.113 276.755 416.378 275.835C416.649 274.891 417.256 273.858 418.118 272.659C421.536 267.907 428.617 261.076 430.677 248.684C430.765 248.536 430.835 248.365 430.889 248.192C430.963 247.96 431.026 247.683 431.08 247.374C431.189 246.756 431.269 245.969 431.326 245.072C431.439 243.274 431.456 240.988 431.379 238.615C431.302 236.241 431.132 233.769 430.87 231.601C430.627 229.591 430.298 227.806 429.882 226.597C432.48 222.831 435.112 220.199 437.6 218.663Z" fill="white" stroke="white"/>
<path d="M327.271 162.828C329.839 162.283 331.493 162.669 332.592 163.612C333.719 164.579 334.381 166.228 334.729 168.466C335.074 170.692 335.094 173.406 335.025 176.402C334.957 179.381 334.8 182.646 334.8 185.905C334.8 192.359 333.135 203.747 331.257 213.548C330.319 218.442 329.331 222.925 328.477 226.179C328.049 227.809 327.657 229.119 327.325 230.015C327.158 230.467 327.014 230.794 326.896 231.001C326.866 231.052 326.841 231.092 326.821 231.12H326.635L326.505 231.424C326.317 231.864 326.162 232.034 326.086 232.083C326.081 232.086 326.077 232.086 326.074 232.088C326.063 232.083 326.043 232.074 326.013 232.052C325.887 231.958 325.709 231.739 325.495 231.334C325.288 230.941 325.072 230.421 324.851 229.781C323.963 227.215 323.062 222.943 322.253 218.001C320.637 208.125 319.416 195.715 319.416 189.246C319.416 182.689 319.069 176.836 319.911 172.192C320.33 169.885 321.036 167.922 322.197 166.35C323.349 164.793 324.969 163.59 327.271 162.828Z" fill="white" stroke="white"/>
<path d="M350.936 176.735C352.706 176.735 356.021 177.323 360.046 178.262C364.052 179.197 368.712 180.466 373.144 181.802C377.578 183.139 381.775 184.542 384.859 185.74C386.403 186.34 387.655 186.883 388.514 187.338C388.785 187.481 389.009 187.613 389.187 187.729C388.742 187.798 388.202 187.837 387.569 187.84C386.518 187.845 385.252 187.757 383.814 187.603C380.939 187.295 377.422 186.72 373.635 186.093C366.32 184.883 357.997 183.474 351.548 183.467L350.929 183.471C343.067 183.578 337.817 183.188 334.546 182.516C332.906 182.18 331.802 181.78 331.12 181.361C330.437 180.942 330.264 180.566 330.264 180.279C330.264 180.289 330.272 180.156 330.646 179.911C330.987 179.688 331.51 179.454 332.201 179.219C333.575 178.753 335.503 178.319 337.68 177.949C342.032 177.209 347.297 176.735 350.936 176.735Z" fill="white" stroke="white"/>
<path d="M340.49 180.193C340.537 180.875 340.571 181.735 340.593 182.731C340.651 185.354 340.638 188.863 340.638 192.411V192.435C340.813 196.04 340.958 199.372 340.986 201.801C340.998 202.771 340.988 203.587 340.958 204.216C340.766 203.547 340.557 202.648 340.362 201.573C339.915 199.101 339.538 195.747 339.538 192.236C339.538 188.712 339.786 185.26 340.104 182.694C340.227 181.709 340.359 180.861 340.49 180.193Z" fill="white" stroke="white"/>
<path d="M573.43 110.615C595.543 106.171 614.883 104.682 628.943 105.155C635.976 105.392 641.668 106.12 645.719 107.205C647.746 107.749 649.341 108.376 650.482 109.062C651.632 109.753 652.258 110.465 652.469 111.151L652.477 111.177L652.488 111.203C653.827 114.308 654.337 116.772 654.182 118.728C654.029 120.662 653.226 122.129 651.864 123.27C650.484 124.425 648.509 125.261 646 125.862C643.495 126.462 640.497 126.818 637.102 127.038C630.297 127.48 622.023 127.372 613.046 127.632C604.653 127.875 595.689 128.439 586.889 130.081L585.143 130.423C543.462 137.896 524.685 154.302 513.048 167.625C510.149 170.945 507.689 174.079 505.447 176.806C503.198 179.543 501.169 181.869 499.106 183.627C497.047 185.38 494.974 186.549 492.641 186.995C490.342 187.433 487.741 187.178 484.585 186.015C483.584 184.612 483.148 182.643 483.327 180.179C483.51 177.65 484.337 174.646 485.799 171.313C488.722 164.648 494.15 156.739 501.863 148.799C517.043 133.169 541.017 117.474 571.952 110.921L573.43 110.615Z" fill="white" stroke="white"/>
<path d="M506.635 145.707C508.093 145.11 509.29 145.086 510.234 145.6L510.419 145.71C516.182 149.424 518.605 152.339 519.095 155.085C519.585 157.829 518.183 160.595 515.705 164.147C510.867 171.081 502.276 180.543 498.646 197.478L498.477 198.29L498.475 198.298C494.507 219.741 502.45 236.576 506.823 246.287C507.921 248.726 508.778 250.679 509.182 252.151C509.384 252.887 509.46 253.458 509.418 253.885C509.379 254.294 509.236 254.54 509.01 254.703C508.762 254.881 508.339 255.011 507.639 255.015C506.945 255.019 506.034 254.9 504.866 254.637C502.529 254.113 499.248 253.04 494.767 251.371L493.987 251.081L494.097 251.906C494.576 255.495 494.615 258.013 494.343 259.616C494.207 260.419 494.001 260.948 493.771 261.264C493.556 261.561 493.331 261.661 493.092 261.664C492.82 261.666 492.446 261.541 491.966 261.205C491.493 260.873 490.961 260.365 490.382 259.682C489.226 258.317 487.935 256.306 486.616 253.763C481.335 243.588 475.761 225.213 476.544 206.85L476.546 206.815L476.542 206.781C475.983 200.945 477.263 193.833 479.669 186.515C482.074 179.205 485.59 171.726 489.467 165.171C493.347 158.611 497.573 153.001 501.387 149.41C503.297 147.612 505.077 146.345 506.635 145.707Z" fill="white" stroke="white"/>
<path d="M641.473 111.086C644.219 109.503 646.354 109.299 648.023 110.019C649.712 110.748 651.074 112.486 652.118 115.123C654.208 120.395 654.885 128.889 654.699 138.467C654.34 156.994 650.763 179.276 648.322 189.25L648.088 190.176L648.086 190.183C636.652 237.369 614.245 263.12 589.711 275.304C565.207 287.474 538.502 286.15 518.32 279.012C510.949 271.233 506.259 266.012 503.769 262.618C502.51 260.901 501.86 259.713 501.675 258.928C501.585 258.545 501.622 258.322 501.687 258.191C501.747 258.07 501.873 257.946 502.153 257.851C502.753 257.647 503.808 257.656 505.36 257.874C506.884 258.088 508.794 258.488 511.047 258.99C515.543 259.991 521.365 261.386 528.023 262.444C541.338 264.56 558.063 265.341 574.471 258.943C590.897 252.538 606.943 238.962 618.932 212.485L618.936 212.477L618.94 212.468C631.395 181.971 632.666 159.044 633.038 142.485C633.225 134.189 633.187 127.569 634.197 122.371C635.167 117.373 637.092 113.77 641.08 111.319L641.473 111.086Z" fill="white" stroke="white"/>
<path d="M630.79 105.415C633.363 105.333 636.12 105.449 638.599 105.587C640.755 105.707 642.721 105.845 644.146 105.878L644.723 105.885C650.075 105.885 654.347 110.942 654.347 117.154C654.347 120.429 654.811 126.798 654.561 132.459C654.437 135.279 654.136 137.853 653.53 139.708C652.909 141.607 652.063 142.501 650.998 142.501C650.733 142.501 650.373 142.419 649.913 142.229C649.457 142.042 648.931 141.761 648.342 141.39C647.165 140.649 645.774 139.574 644.249 138.251C641.2 135.606 637.657 132.005 634.286 128.198C630.915 124.391 627.726 120.39 625.384 116.948C624.213 115.226 623.259 113.654 622.6 112.321C621.932 110.969 621.601 109.93 621.601 109.253C621.601 107.96 622.476 107.046 624.166 106.413C625.855 105.78 628.206 105.497 630.79 105.415Z" fill="white" stroke="white"/>
<path d="M519.699 256.735C543.015 265.899 559.906 263.557 567.66 261.451C563.397 264.25 555.871 269.741 544.653 279.774L544.425 279.979L544.503 280.274C544.782 281.337 544.624 282.045 544.236 282.534C543.829 283.047 543.089 283.425 541.989 283.635C539.789 284.055 536.481 283.744 532.748 282.998C525.31 281.512 516.467 278.36 512.125 276.353H512.126L512.112 276.348L510.916 275.83C505.106 273.296 501.858 271.537 500.051 270.047C499.097 269.261 498.57 268.569 498.273 267.9C497.977 267.232 497.892 266.545 497.892 265.729C497.892 265.461 498.025 265.1 498.368 264.649C498.706 264.205 499.214 263.718 499.878 263.209C501.203 262.192 503.086 261.131 505.277 260.166C509.635 258.248 515.121 256.755 519.699 256.735Z" fill="white" stroke="white"/>
<path d="M85.18 466C81.0733 466 77.92 464.24 75.72 460.72C73.52 457.2 73.3 453.46 75.06 449.5L136.88 301.88C139.08 296.747 142.673 294.18 147.66 294.18C152.94 294.18 156.533 296.747 158.44 301.88L220.48 449.94C222.093 454.047 221.8 457.787 219.6 461.16C217.547 464.387 214.393 466 210.14 466C207.94 466 205.813 465.413 203.76 464.24C201.853 462.92 200.46 461.16 199.58 458.96L145.02 323.44H151.18L95.74 458.96C94.7133 461.307 93.1733 463.067 91.12 464.24C89.2133 465.413 87.2333 466 85.18 466ZM96.84 428.16L105.64 409.24H191.88L200.68 428.16H96.84ZM279.351 466.88C268.351 466.88 258.597 464.313 250.091 459.18C241.731 453.9 235.131 446.713 230.291 437.62C225.451 428.38 223.031 417.82 223.031 405.94C223.031 393.913 225.597 383.353 230.731 374.26C236.011 365.02 243.197 357.833 252.291 352.7C261.384 347.42 271.871 344.78 283.751 344.78C295.484 344.78 305.897 347.42 314.991 352.7C324.084 357.833 331.197 365.02 336.331 374.26C341.611 383.353 344.251 393.913 344.251 405.94H331.271C331.271 417.82 328.997 428.38 324.451 437.62C320.051 446.713 313.964 453.9 306.191 459.18C298.417 464.313 289.471 466.88 279.351 466.88ZM283.311 515.94C272.897 515.94 263.144 513.887 254.051 509.78C244.957 505.673 237.257 499.66 230.951 491.74C229.044 489.247 228.311 486.68 228.751 484.04C229.337 481.4 230.804 479.273 233.151 477.66C235.791 475.9 238.504 475.313 241.291 475.9C244.224 476.487 246.571 477.953 248.331 480.3C252.291 485.287 257.277 489.173 263.291 491.96C269.304 494.747 276.124 496.14 283.751 496.14C290.791 496.14 297.244 494.453 303.111 491.08C309.124 487.707 313.891 482.72 317.411 476.12C320.931 469.52 322.691 461.453 322.691 451.92V420.68L329.951 401.32L344.251 405.94V453.46C344.251 465.047 341.684 475.533 336.551 484.92C331.417 494.453 324.231 502.007 314.991 507.58C305.897 513.153 295.337 515.94 283.311 515.94ZM283.751 447.08C291.377 447.08 298.124 445.32 303.991 441.8C309.857 438.28 314.404 433.44 317.631 427.28C321.004 421.12 322.691 414.007 322.691 405.94C322.691 397.873 321.004 390.76 317.631 384.6C314.404 378.293 309.857 373.38 303.991 369.86C298.124 366.34 291.377 364.58 283.751 364.58C276.124 364.58 269.377 366.34 263.511 369.86C257.644 373.38 253.024 378.293 249.651 384.6C246.277 390.76 244.591 397.873 244.591 405.94C244.591 414.007 246.277 421.12 249.651 427.28C253.024 433.44 257.644 438.28 263.511 441.8C269.377 445.32 276.124 447.08 283.751 447.08ZM377.428 390.76C377.428 381.96 379.554 374.113 383.808 367.22C388.208 360.18 394.074 354.607 401.408 350.5C408.741 346.393 416.808 344.34 425.608 344.34C434.408 344.34 440.934 345.807 445.188 348.74C449.588 351.527 451.274 354.9 450.248 358.86C449.808 360.913 448.928 362.527 447.608 363.7C446.434 364.727 445.041 365.387 443.428 365.68C441.814 365.973 440.054 365.9 438.148 365.46C428.761 363.553 420.328 363.407 412.848 365.02C405.368 366.633 399.428 369.64 395.028 374.04C390.774 378.44 388.648 384.013 388.648 390.76H377.428ZM377.648 466C374.128 466 371.414 465.12 369.508 463.36C367.601 461.453 366.648 458.667 366.648 455V356.66C366.648 353.14 367.601 350.427 369.508 348.52C371.414 346.613 374.128 345.66 377.648 345.66C381.314 345.66 384.028 346.613 385.788 348.52C387.694 350.28 388.648 352.993 388.648 356.66V455C388.648 458.52 387.694 461.233 385.788 463.14C384.028 465.047 381.314 466 377.648 466ZM476.28 466C473.053 466 470.34 464.9 468.14 462.7C465.94 460.5 464.84 457.787 464.84 454.56V305.62C464.84 302.247 465.94 299.533 468.14 297.48C470.34 295.28 473.053 294.18 476.28 294.18C479.653 294.18 482.367 295.28 484.42 297.48C486.62 299.533 487.72 302.247 487.72 305.62V454.56C487.72 457.787 486.62 460.5 484.42 462.7C482.367 464.9 479.653 466 476.28 466ZM571.476 466C568.25 466 565.536 464.9 563.336 462.7C561.136 460.5 560.036 457.787 560.036 454.56V294.18H582.916V454.56C582.916 457.787 581.816 460.5 579.616 462.7C577.416 464.9 574.703 466 571.476 466ZM512.516 315.3C509.436 315.3 506.87 314.347 504.816 312.44C502.91 310.387 501.956 307.82 501.956 304.74C501.956 301.66 502.91 299.167 504.816 297.26C506.87 295.207 509.436 294.18 512.516 294.18H630.216C633.296 294.18 635.79 295.207 637.696 297.26C639.75 299.167 640.776 301.66 640.776 304.74C640.776 307.82 639.75 310.387 637.696 312.44C635.79 314.347 633.296 315.3 630.216 315.3H512.516ZM632.963 390.76C632.963 381.96 635.089 374.113 639.343 367.22C643.743 360.18 649.609 354.607 656.943 350.5C664.276 346.393 672.343 344.34 681.143 344.34C689.943 344.34 696.469 345.807 700.723 348.74C705.123 351.527 706.809 354.9 705.783 358.86C705.343 360.913 704.463 362.527 703.143 363.7C701.969 364.727 700.576 365.387 698.963 365.68C697.349 365.973 695.589 365.9 693.683 365.46C684.296 363.553 675.863 363.407 668.383 365.02C660.903 366.633 654.963 369.64 650.563 374.04C646.309 378.44 644.183 384.013 644.183 390.76H632.963ZM633.183 466C629.663 466 626.949 465.12 625.043 463.36C623.136 461.453 622.183 458.667 622.183 455V356.66C622.183 353.14 623.136 350.427 625.043 348.52C626.949 346.613 629.663 345.66 633.183 345.66C636.849 345.66 639.563 346.613 641.323 348.52C643.229 350.28 644.183 352.993 644.183 356.66V455C644.183 458.52 643.229 461.233 641.323 463.14C639.563 465.047 636.849 466 633.183 466ZM765.906 466.88C753.733 466.88 742.88 464.313 733.346 459.18C723.96 453.9 716.553 446.713 711.126 437.62C705.846 428.38 703.206 417.82 703.206 405.94C703.206 393.913 705.7 383.353 710.686 374.26C715.82 365.02 722.86 357.833 731.806 352.7C740.753 347.42 751.02 344.78 762.606 344.78C774.046 344.78 783.873 347.347 792.086 352.48C800.3 357.467 806.533 364.433 810.786 373.38C815.186 382.18 817.386 392.373 817.386 403.96C817.386 406.747 816.433 409.093 814.526 411C812.62 412.76 810.2 413.64 807.266 413.64H718.606V396.04H806.606L797.586 402.2C797.44 394.867 795.973 388.34 793.186 382.62C790.4 376.753 786.44 372.133 781.306 368.76C776.173 365.387 769.94 363.7 762.606 363.7C754.246 363.7 747.06 365.533 741.046 369.2C735.18 372.867 730.706 377.927 727.626 384.38C724.546 390.687 723.006 397.873 723.006 405.94C723.006 414.007 724.84 421.193 728.506 427.5C732.173 433.807 737.233 438.793 743.686 442.46C750.14 446.127 757.546 447.96 765.906 447.96C770.453 447.96 775.073 447.153 779.766 445.54C784.606 443.78 788.493 441.8 791.426 439.6C793.626 437.987 795.973 437.18 798.466 437.18C801.106 437.033 803.38 437.767 805.286 439.38C807.78 441.58 809.1 444 809.246 446.64C809.393 449.28 808.22 451.553 805.726 453.46C800.74 457.42 794.506 460.647 787.026 463.14C779.693 465.633 772.653 466.88 765.906 466.88ZM936.647 466.22C933.42 466.22 930.707 465.193 928.507 463.14C926.454 460.94 925.427 458.227 925.427 455V400.88C925.427 392.52 923.887 385.7 920.807 380.42C917.727 375.14 913.547 371.253 908.267 368.76C903.134 366.12 897.194 364.8 890.447 364.8C884.287 364.8 878.714 366.047 873.727 368.54C868.74 371.033 864.78 374.407 861.847 378.66C858.914 382.767 857.447 387.533 857.447 392.96H843.587C843.587 383.72 845.787 375.507 850.187 368.32C854.734 360.987 860.894 355.193 868.667 350.94C876.44 346.687 885.167 344.56 894.847 344.56C904.967 344.56 913.987 346.76 921.907 351.16C929.974 355.413 936.28 361.72 940.827 370.08C945.52 378.44 947.867 388.707 947.867 400.88V455C947.867 458.227 946.767 460.94 944.567 463.14C942.514 465.193 939.874 466.22 936.647 466.22ZM846.227 466.22C843 466.22 840.287 465.193 838.087 463.14C836.034 460.94 835.007 458.227 835.007 455V356.88C835.007 353.507 836.034 350.793 838.087 348.74C840.287 346.687 843 345.66 846.227 345.66C849.6 345.66 852.314 346.687 854.367 348.74C856.42 350.793 857.447 353.507 857.447 356.88V455C857.447 458.227 856.42 460.94 854.367 463.14C852.314 465.193 849.6 466.22 846.227 466.22ZM1017.75 466C1010.41 466 1003.81 464.167 997.948 460.5C992.081 456.687 987.461 451.553 984.088 445.1C980.715 438.647 979.028 431.387 979.028 423.32V318.38C979.028 315.153 980.055 312.513 982.108 310.46C984.161 308.407 986.801 307.38 990.028 307.38C993.255 307.38 995.895 308.407 997.948 310.46C1000 312.513 1001.03 315.153 1001.03 318.38V423.32C1001.03 429.187 1002.64 434.1 1005.87 438.06C1009.09 442.02 1013.05 444 1017.75 444H1025.23C1027.87 444 1030.07 445.027 1031.83 447.08C1033.73 449.133 1034.69 451.773 1034.69 455C1034.69 458.227 1033.44 460.867 1030.95 462.92C1028.6 464.973 1025.52 466 1021.71 466H1017.75ZM968.908 368.98C965.828 368.98 963.335 368.1 961.428 366.34C959.521 364.58 958.568 362.38 958.568 359.74C958.568 356.807 959.521 354.46 961.428 352.7C963.335 350.94 965.828 350.06 968.908 350.06H1019.73C1022.81 350.06 1025.3 350.94 1027.21 352.7C1029.11 354.46 1030.07 356.807 1030.07 359.74C1030.07 362.38 1029.11 364.58 1027.21 366.34C1025.3 368.1 1022.81 368.98 1019.73 368.98H968.908ZM1105.83 466.88C1093.95 466.88 1083.46 464.313 1074.37 459.18C1065.28 453.9 1058.09 446.713 1052.81 437.62C1047.68 428.38 1045.11 417.82 1045.11 405.94C1045.11 393.913 1047.68 383.353 1052.81 374.26C1058.09 365.02 1065.28 357.833 1074.37 352.7C1083.46 347.42 1093.95 344.78 1105.83 344.78C1117.56 344.78 1127.98 347.42 1137.07 352.7C1146.16 357.833 1153.28 365.02 1158.41 374.26C1163.69 383.353 1166.33 393.913 1166.33 405.94C1166.33 417.82 1163.76 428.38 1158.63 437.62C1153.5 446.713 1146.38 453.9 1137.29 459.18C1128.2 464.313 1117.71 466.88 1105.83 466.88ZM1105.83 447.08C1113.46 447.08 1120.2 445.32 1126.07 441.8C1131.94 438.28 1136.48 433.44 1139.71 427.28C1143.08 421.12 1144.77 414.007 1144.77 405.94C1144.77 397.873 1143.08 390.76 1139.71 384.6C1136.48 378.293 1131.94 373.38 1126.07 369.86C1120.2 366.34 1113.46 364.58 1105.83 364.58C1098.2 364.58 1091.46 366.34 1085.59 369.86C1079.72 373.38 1075.1 378.293 1071.73 384.6C1068.36 390.76 1066.67 397.873 1066.67 405.94C1066.67 414.007 1068.36 421.12 1071.73 427.28C1075.1 433.44 1079.72 438.28 1085.59 441.8C1091.46 445.32 1098.2 447.08 1105.83 447.08Z" fill="white"/>
</svg>
